<svg width="186" height="56" viewBox="0 0 186 56" fill="none" xmlns="http://www.w3.org/2000/svg">
<rect width="186" height="56.0001" rx="8" fill="#E8F2FE"/>
<path d="M51.8335 27.0889C51.8468 26.0735 52.1215 25.0779 52.632 24.1947C53.1425 23.3115 53.8722 22.5695 54.7532 22.0376C54.1935 21.2528 53.4552 20.6068 52.5968 20.1512C51.7384 19.6955 50.7836 19.4427 49.8082 19.4127C47.7277 19.1982 45.7107 20.6351 44.6504 20.6351C43.5697 20.6351 41.9373 19.434 40.1795 19.4695C39.0425 19.5056 37.9344 19.8302 36.9632 20.4118C35.992 20.9934 35.1908 21.8121 34.6376 22.7881C32.2415 26.8617 34.0288 32.8485 36.3241 36.1412C37.4725 37.7536 38.8147 39.5547 40.5709 39.4908C42.2895 39.4208 42.9313 38.4148 45.0058 38.4148C47.061 38.4148 47.6631 39.4908 49.455 39.4502C51.2991 39.4208 52.4609 37.8307 53.5691 36.203C54.3942 35.0541 55.0292 33.7844 55.4504 32.4408C54.379 31.9958 53.4647 31.2511 52.8216 30.2994C52.1784 29.3477 51.8347 28.2311 51.8335 27.0889Z" fill="black"/>
<path d="M48.4499 17.2466C49.4554 16.0614 49.9508 14.538 49.8308 13C48.2947 13.1584 46.8757 13.8793 45.8567 15.019C45.3584 15.5758 44.9768 16.2235 44.7337 16.9252C44.4905 17.6269 44.3906 18.3688 44.4396 19.1084C45.208 19.1161 45.9681 18.9526 46.6627 18.6301C47.3574 18.3076 47.9685 17.8346 48.4499 17.2466Z" fill="black"/>
<path d="M72.4528 35.5698H66.8131L65.4588 39.4964H63.0701L68.4118 24.9688H70.8936L76.2354 39.4964H73.806L72.4528 35.5698ZM67.3972 33.7578H71.8676L69.6638 27.3851H69.6021L67.3972 33.7578Z" fill="black"/>
<path d="M87.7722 34.2008C87.7722 37.4922 85.9781 39.6069 83.2705 39.6069C82.5847 39.6422 81.9026 39.487 81.3023 39.1593C80.7021 38.8316 80.2079 38.3445 79.8765 37.7538H79.8253V43.0001H77.6111V28.9043H79.7543V30.666H79.795C80.1417 30.0781 80.6442 29.5936 81.249 29.2639C81.8538 28.9341 82.5383 28.7716 83.2298 28.7935C85.9676 28.7935 87.7722 30.9185 87.7722 34.2008ZM85.4964 34.2008C85.4964 32.0564 84.3677 30.6465 82.6457 30.6465C80.9539 30.6465 79.816 32.0861 79.816 34.2008C79.816 36.3349 80.9539 37.7641 82.6457 37.7641C84.3678 37.7641 85.4963 36.3646 85.4963 34.2008H85.4964Z" fill="black"/>
<path d="M99.6459 34.2008C99.6459 37.4922 97.8511 39.6069 95.1436 39.6069C94.4577 39.6422 93.7756 39.487 93.1754 39.1593C92.5751 38.8316 92.081 38.3445 91.7496 37.7538H91.6983V43.0001H89.4841V28.9043H91.6274V30.666H91.6681C92.0147 30.0781 92.5172 29.5936 93.122 29.2639C93.7268 28.9341 94.4114 28.7716 95.1028 28.7935C97.8406 28.7935 99.6459 30.9185 99.6459 34.2008ZM97.3694 34.2008C97.3694 32.0564 96.2408 30.6465 94.5188 30.6465C92.827 30.6465 91.6891 32.0861 91.6891 34.2008C91.6891 36.3349 92.827 37.7641 94.5188 37.7641C96.2408 37.7641 97.3694 36.3646 97.3694 34.2008Z" fill="black"/>
<path d="M107.491 35.4487C107.655 36.8894 109.08 37.8353 111.028 37.8353C112.894 37.8353 114.237 36.8893 114.237 35.5903C114.237 34.4627 113.427 33.7875 111.51 33.3248L109.592 32.8712C106.875 32.2269 105.614 30.9793 105.614 28.9548C105.614 26.4483 107.839 24.7266 110.997 24.7266C114.124 24.7266 116.268 26.4483 116.34 28.9548H114.104C113.971 27.5051 112.75 26.6299 110.966 26.6299C109.183 26.6299 107.962 27.5153 107.962 28.804C107.962 29.8311 108.742 30.4355 110.649 30.8982L112.279 31.2912C115.315 31.9961 116.575 33.1934 116.575 35.3184C116.575 38.0363 114.371 39.7386 110.864 39.7386C107.583 39.7386 105.367 38.0763 105.224 35.4486L107.491 35.4487Z" fill="black"/>
<path d="M121.355 26.3989V28.9055H123.407V30.6272H121.355V36.4664C121.355 37.3735 121.766 37.7962 122.668 37.7962C122.911 37.792 123.154 37.7753 123.396 37.7459V39.4573C122.991 39.5317 122.579 39.5654 122.166 39.5579C119.982 39.5579 119.131 38.7524 119.131 36.6983V30.6272H117.562V28.9055H119.131V26.3989H121.355Z" fill="black"/>
<path d="M124.594 34.2019C124.594 30.8693 126.592 28.7751 129.71 28.7751C132.837 28.7751 134.827 30.8692 134.827 34.2019C134.827 37.5436 132.848 39.6286 129.71 39.6286C126.573 39.6286 124.594 37.5436 124.594 34.2019ZM132.571 34.2019C132.571 31.9158 131.504 30.5665 129.71 30.5665C127.915 30.5665 126.848 31.9261 126.848 34.2019C126.848 36.4971 127.915 37.8361 129.71 37.8361C131.504 37.8361 132.571 36.4971 132.571 34.2019H132.571Z" fill="black"/>
<path d="M136.652 28.9042H138.764V30.707H138.815C138.958 30.1439 139.294 29.6463 139.766 29.2978C140.239 28.9494 140.819 28.7712 141.41 28.7933C141.665 28.7925 141.919 28.8197 142.168 28.8745V30.9081C141.846 30.8114 141.51 30.767 141.174 30.7767C140.852 30.7639 140.531 30.8196 140.234 30.9399C139.936 31.0603 139.668 31.2425 139.449 31.474C139.23 31.7055 139.064 31.9808 138.964 32.2811C138.863 32.5814 138.83 32.8995 138.866 33.2136V39.496H136.652L136.652 28.9042Z" fill="black"/>
<path d="M152.377 36.3863C152.079 38.3091 150.172 39.6286 147.732 39.6286C144.594 39.6286 142.646 37.5642 142.646 34.2521C142.646 30.9298 144.604 28.7751 147.639 28.7751C150.623 28.7751 152.5 30.7882 152.5 33.9997V34.7446H144.881V34.8759C144.846 35.2657 144.896 35.6584 145.027 36.0279C145.158 36.3974 145.368 36.7353 145.643 37.019C145.917 37.3028 146.25 37.526 146.619 37.6737C146.988 37.8215 147.385 37.8905 147.783 37.8761C148.306 37.9242 148.832 37.8052 149.28 37.5368C149.729 37.2684 150.078 36.8649 150.274 36.3863L152.377 36.3863ZM144.892 33.2251H150.285C150.305 32.8746 150.251 32.5238 150.126 32.1948C150.001 31.8659 149.809 31.5657 149.56 31.3133C149.312 31.0609 149.013 30.8616 148.682 30.728C148.352 30.5944 147.996 30.5293 147.639 30.5368C147.278 30.5347 146.921 30.6027 146.587 30.737C146.254 30.8712 145.95 31.069 145.695 31.3189C145.44 31.5689 145.237 31.866 145.099 32.1931C144.961 32.5203 144.891 32.871 144.892 33.2251V33.2251Z" fill="black"/>
<path d="M67.1184 14.034C67.5827 14.0013 68.0485 14.0702 68.4823 14.2357C68.9161 14.4011 69.3071 14.6591 69.6271 14.9909C69.9472 15.3227 70.1882 15.7201 70.3328 16.1544C70.4775 16.5888 70.5221 17.0492 70.4636 17.5026C70.4636 19.7327 69.2361 21.0146 67.1184 21.0146H64.5505V14.034H67.1184ZM65.6547 20.0274H66.9951C67.3268 20.0469 67.6588 19.9935 67.9668 19.8711C68.2748 19.7487 68.5512 19.5604 68.7758 19.3199C69.0004 19.0794 69.1675 18.7928 69.2651 18.4809C69.3626 18.1689 69.3881 17.8396 69.3396 17.5168C69.3845 17.1953 69.3565 16.868 69.2575 16.5584C69.1584 16.2487 68.9909 15.9644 68.7668 15.7259C68.5427 15.4873 68.2677 15.3003 67.9614 15.1784C67.6551 15.0564 67.3251 15.0025 66.9951 15.0205H65.6547V20.0274Z" fill="black"/>
<path d="M71.7109 18.3793C71.6772 18.0331 71.7175 17.6838 71.8294 17.3538C71.9412 17.0238 72.122 16.7204 72.3602 16.4631C72.5984 16.2057 72.8888 16.0001 73.2127 15.8594C73.5366 15.7187 73.8869 15.646 74.241 15.646C74.5952 15.646 74.9455 15.7187 75.2694 15.8594C75.5933 16.0001 75.8837 16.2057 76.1219 16.4631C76.3601 16.7204 76.5409 17.0238 76.6527 17.3538C76.7645 17.6838 76.8049 18.0331 76.7711 18.3793C76.8055 18.7258 76.7656 19.0756 76.6541 19.4061C76.5426 19.7367 76.3619 20.0406 76.1236 20.2985C75.8854 20.5564 75.5948 20.7624 75.2705 20.9034C74.9463 21.0444 74.5956 21.1173 74.241 21.1173C73.8864 21.1173 73.5357 21.0444 73.2115 20.9034C72.8873 20.7624 72.5967 20.5564 72.3584 20.2985C72.1202 20.0406 71.9394 19.7367 71.8279 19.4061C71.7164 19.0756 71.6766 18.7258 71.7109 18.3793ZM75.6821 18.3793C75.6821 17.2374 75.1596 16.5696 74.2428 16.5696C73.3224 16.5696 72.8047 17.2374 72.8047 18.3793C72.8047 19.5304 73.3225 20.193 74.2428 20.193C75.1596 20.193 75.6821 19.5258 75.6821 18.3793H75.6821Z" fill="black"/>
<path d="M83.4968 21.0145H82.3985L81.2896 17.1347H81.2059L80.1017 21.0145H79.0138L77.5349 15.7466H78.6089L79.5699 19.7663H79.6491L80.7521 15.7466H81.7678L82.8709 19.7663H82.9546L83.9111 15.7466H84.9699L83.4968 21.0145Z" fill="black"/>
<path d="M86.2127 15.7463H87.2319V16.5831H87.311C87.4452 16.2826 87.6716 16.0306 87.9586 15.8624C88.2456 15.6941 88.5789 15.618 88.912 15.6446C89.1731 15.6253 89.4352 15.664 89.679 15.7577C89.9228 15.8514 90.1419 15.9977 90.3203 16.1859C90.4986 16.3741 90.6315 16.5992 90.7092 16.8447C90.7869 17.0902 90.8074 17.3496 90.769 17.6039V21.0142H89.7102V17.865C89.7102 17.0184 89.3356 16.5974 88.5525 16.5974C88.3753 16.5893 88.1983 16.6189 88.0339 16.6842C87.8694 16.7496 87.7212 16.849 87.5995 16.9758C87.4779 17.1026 87.3855 17.2538 87.3289 17.4189C87.2723 17.584 87.2527 17.7592 87.2715 17.9324V21.0142H86.2126L86.2127 15.7463Z" fill="black"/>
<path d="M92.4587 13.6902H93.5176V21.0146H92.4587V13.6902Z" fill="black"/>
<path d="M94.9883 18.3774C94.9546 18.0312 94.9949 17.6819 95.1067 17.3519C95.2186 17.0219 95.3994 16.7185 95.6377 16.4611C95.8759 16.2038 96.1663 15.9982 96.4902 15.8574C96.8141 15.7167 97.1644 15.644 97.5186 15.644C97.8729 15.644 98.2231 15.7167 98.5471 15.8574C98.871 15.9982 99.1614 16.2038 99.3996 16.4611C99.6379 16.7185 99.8187 17.0219 99.9305 17.3519C100.042 17.6819 100.083 18.0312 100.049 18.3774C100.083 18.724 100.043 19.0738 99.9319 19.4043C99.8204 19.7348 99.6396 20.0388 99.4013 20.2966C99.163 20.5545 98.8724 20.7605 98.5482 20.9015C98.2239 21.0425 97.8733 21.1154 97.5186 21.1154C97.164 21.1154 96.8133 21.0425 96.4891 20.9015C96.1649 20.7605 95.8743 20.5545 95.636 20.2966C95.3976 20.0388 95.2169 19.7348 95.1054 19.4043C94.9938 19.0738 94.9539 18.724 94.9883 18.3774ZM98.9594 18.3774C98.9594 17.2356 98.4369 16.5678 97.5201 16.5678C96.5997 16.5678 96.082 17.2356 96.082 18.3775C96.082 19.5285 96.5998 20.1911 97.5201 20.1911C98.437 20.1911 98.9594 19.5239 98.9594 18.3774H98.9594Z" fill="black"/>
<path d="M101.166 19.5258C101.166 18.5776 101.885 18.0309 103.161 17.9532L104.614 17.871V17.4163C104.614 16.8599 104.24 16.5457 103.516 16.5457C102.925 16.5457 102.515 16.7588 102.398 17.1312H101.373C101.481 16.2264 102.348 15.646 103.565 15.646C104.91 15.646 105.669 16.3035 105.669 17.4163V21.0156H104.649V20.2753H104.566C104.396 20.5408 104.157 20.7573 103.874 20.9026C103.591 21.048 103.273 21.1169 102.954 21.1024C102.729 21.1254 102.501 21.1018 102.286 21.0331C102.071 20.9645 101.872 20.8522 101.704 20.7037C101.535 20.5552 101.4 20.3736 101.308 20.1707C101.215 19.9678 101.167 19.7482 101.166 19.5258ZM104.614 19.0757V18.6353L103.304 18.7175C102.565 18.7661 102.23 19.0128 102.23 19.4773C102.23 19.9514 102.649 20.2273 103.225 20.2273C103.394 20.2441 103.564 20.2273 103.727 20.1781C103.889 20.1288 104.039 20.0481 104.169 19.9407C104.298 19.8332 104.404 19.7013 104.481 19.5527C104.558 19.4041 104.603 19.2419 104.614 19.0757Z" fill="black"/>
<path d="M107.058 18.3783C107.058 16.7138 107.93 15.6593 109.285 15.6593C109.621 15.6441 109.953 15.7229 110.245 15.8866C110.536 16.0503 110.774 16.292 110.931 16.5835H111.01V13.6902H112.069V21.0146H111.054V20.1823H110.97C110.801 20.4718 110.555 20.7105 110.258 20.8725C109.961 21.0345 109.625 21.1137 109.285 21.1014C107.921 21.1014 107.058 20.0469 107.058 18.3783ZM108.152 18.3783C108.152 19.4957 108.689 20.168 109.586 20.168C110.478 20.168 111.03 19.486 111.03 18.3829C111.03 17.285 110.472 16.5932 109.586 16.5932C108.694 16.5932 108.152 17.2701 108.152 18.3783H108.152Z" fill="black"/>
<path d="M116.449 18.3793C116.415 18.0331 116.456 17.6838 116.568 17.3538C116.679 17.0238 116.86 16.7204 117.098 16.4631C117.337 16.2057 117.627 16.0001 117.951 15.8594C118.275 15.7187 118.625 15.646 118.979 15.646C119.334 15.646 119.684 15.7187 120.008 15.8594C120.332 16.0001 120.622 16.2057 120.86 16.4631C121.098 16.7204 121.279 17.0238 121.391 17.3538C121.503 17.6838 121.543 18.0331 121.509 18.3793C121.544 18.7258 121.504 19.0756 121.392 19.4061C121.281 19.7367 121.1 20.0406 120.862 20.2985C120.624 20.5564 120.333 20.7624 120.009 20.9034C119.685 21.0444 119.334 21.1173 118.979 21.1173C118.625 21.1173 118.274 21.0444 117.95 20.9034C117.626 20.7624 117.335 20.5564 117.097 20.2985C116.858 20.0406 116.678 19.7367 116.566 19.4061C116.455 19.0756 116.415 18.7258 116.449 18.3793ZM120.42 18.3793C120.42 17.2374 119.898 16.5696 118.981 16.5696C118.061 16.5696 117.543 17.2374 117.543 18.3793C117.543 19.5304 118.061 20.193 118.981 20.193C119.898 20.193 120.42 19.5258 120.42 18.3793Z" fill="black"/>
<path d="M122.931 15.7463H123.951V16.5831H124.03C124.164 16.2826 124.39 16.0306 124.677 15.8624C124.964 15.6941 125.298 15.618 125.631 15.6446C125.892 15.6253 126.154 15.664 126.398 15.7577C126.642 15.8514 126.861 15.9977 127.039 16.1859C127.217 16.3741 127.35 16.5992 127.428 16.8447C127.506 17.0902 127.526 17.3496 127.488 17.6039V21.0142H126.429V17.865C126.429 17.0184 126.054 16.5974 125.271 16.5974C125.094 16.5893 124.917 16.6189 124.753 16.6842C124.588 16.7496 124.44 16.849 124.318 16.9758C124.197 17.1026 124.104 17.2538 124.048 17.4189C123.991 17.584 123.971 17.7592 123.99 17.9324V21.0142H122.931V15.7463Z" fill="black"/>
<path d="M133.47 14.4351V15.7706H134.632V16.6463H133.47V19.3551C133.47 19.9069 133.702 20.1486 134.229 20.1486C134.364 20.1481 134.498 20.1401 134.632 20.1246V20.9905C134.442 21.0239 134.25 21.0417 134.056 21.0437C132.879 21.0437 132.41 20.6369 132.41 19.6213V16.6463H131.558V15.7706H132.41V14.4351H133.47Z" fill="black"/>
<path d="M136.078 13.6902H137.127V16.5932H137.211C137.352 16.2898 137.584 16.0364 137.877 15.8676C138.17 15.6987 138.509 15.6226 138.847 15.6495C139.107 15.6357 139.366 15.6782 139.607 15.7742C139.848 15.8702 140.065 16.0172 140.241 16.2048C140.418 16.3924 140.55 16.6159 140.628 16.8594C140.707 17.1029 140.729 17.3603 140.695 17.6134V21.0146H139.635V17.8699C139.635 17.0285 139.236 16.6023 138.488 16.6023C138.306 16.5877 138.123 16.6122 137.951 16.6743C137.78 16.7364 137.625 16.8344 137.496 16.9617C137.367 17.0889 137.268 17.2421 137.206 17.4108C137.144 17.5794 137.121 17.7593 137.137 17.9379V21.0145H136.078L136.078 13.6902Z" fill="black"/>
<path d="M146.867 19.5914C146.723 20.0728 146.411 20.4893 145.986 20.7679C145.561 21.0465 145.05 21.1695 144.542 21.1154C144.189 21.1246 143.837 21.0581 143.513 20.9206C143.188 20.7831 142.898 20.5779 142.662 20.3192C142.426 20.0605 142.25 19.7545 142.147 19.4224C142.044 19.0904 142.015 18.7403 142.064 18.3963C142.017 18.0514 142.046 17.7005 142.149 17.3674C142.252 17.0344 142.426 16.727 142.661 16.466C142.895 16.2051 143.184 15.9966 143.508 15.8548C143.832 15.713 144.183 15.6412 144.537 15.6441C146.03 15.6441 146.931 16.6456 146.931 18.2998V18.6626H143.142V18.7208C143.126 18.9141 143.15 19.1087 143.215 19.2921C143.279 19.4755 143.382 19.6436 143.517 19.7857C143.651 19.9278 143.815 20.0407 143.996 20.1172C144.178 20.1937 144.373 20.2321 144.571 20.23C144.824 20.2598 145.081 20.215 145.308 20.1013C145.535 19.9876 145.723 19.8101 145.847 19.5913L146.867 19.5914ZM143.142 17.8937H145.852C145.865 17.7169 145.841 17.5393 145.78 17.3723C145.72 17.2053 145.624 17.0527 145.5 16.9242C145.375 16.7956 145.225 16.6941 145.058 16.626C144.891 16.558 144.712 16.5249 144.531 16.529C144.348 16.5267 144.167 16.5605 143.997 16.6283C143.827 16.6961 143.673 16.7965 143.544 16.9237C143.414 17.0509 143.312 17.2022 143.243 17.3688C143.174 17.5354 143.14 17.7138 143.142 17.8937H143.142Z" fill="black"/>
</svg>
