<svg width="192" height="64" viewBox="0 0 192 64" fill="none" xmlns="http://www.w3.org/2000/svg">
<rect width="192" height="64" rx="8" fill="white"/>
<path d="M47.496 33.4987C47.4609 29.3112 50.9232 27.2759 51.0752 27.1823C49.1101 24.3283 46.0689 23.9306 45.0045 23.8955C42.4546 23.6265 39.9748 25.4278 38.6764 25.4278C37.3547 25.4278 35.3428 23.9306 33.1906 23.9657C30.4184 24.0125 27.81 25.6149 26.3946 28.1181C23.4587 33.2063 25.646 40.6924 28.465 44.8097C29.8803 46.8216 31.5179 49.0791 33.6818 48.9972C35.7873 48.9153 36.5827 47.6521 39.1209 47.6521C41.6475 47.6521 42.3844 48.9972 44.5834 48.9504C46.8526 48.9153 48.268 46.9268 49.6365 44.8916C51.2624 42.5873 51.9174 40.3064 51.9408 40.1894C51.8823 40.166 47.5428 38.505 47.496 33.4987Z" fill="#2A81DD"/>
<path d="M43.3436 21.1941C44.4782 19.7787 45.2502 17.8487 45.0397 15.8837C43.4021 15.9538 41.3434 17.0183 40.162 18.4102C39.121 19.6384 38.1852 21.6386 38.4192 23.5218C40.2673 23.6621 42.1622 22.586 43.3436 21.1941Z" fill="#2A81DD"/>
<path d="M76.574 46.7329L75.4275 43.2412H70.4777L69.3311 46.7329H66.8516L71.6242 33.2247H74.3368L79.1095 46.7329H76.574ZM72.92 35.6118L71.037 41.3783H74.8589L72.9852 35.6118H72.92Z" fill="#2A81DD"/>
<path d="M85.7466 36.6415C87.0019 36.6415 87.9993 37.1002 88.7388 38.0176C89.4783 38.935 89.8481 40.1863 89.8481 41.7715C89.8481 43.3504 89.4814 44.5986 88.7481 45.516C88.0148 46.4334 87.0267 46.8921 85.7838 46.8921C85.0754 46.8921 84.4508 46.7329 83.9102 46.4146C83.3695 46.0901 82.9625 45.647 82.689 45.0854H82.6424V50H80.3214V36.81H82.5865V38.5231H82.6331C82.919 37.9365 83.3322 37.4778 83.8729 37.147C84.4136 36.81 85.0381 36.6415 85.7466 36.6415ZM85.0381 44.9824C85.7901 44.9824 86.3835 44.6953 86.8185 44.1211C87.2536 43.5407 87.4711 42.7575 87.4711 41.7715C87.4711 40.7917 87.2504 40.0116 86.8092 39.4312C86.3742 38.8508 85.7838 38.5606 85.0381 38.5606C84.3172 38.5606 83.7362 38.8539 83.295 39.4405C82.8537 40.0272 82.63 40.8041 82.6238 41.7715C82.63 42.745 82.8537 43.5251 83.295 44.1118C83.7362 44.6922 84.3172 44.9824 85.0381 44.9824Z" fill="#2A81DD"/>
<path d="M96.7647 36.6415C98.0201 36.6415 99.0175 37.1002 99.757 38.0176C100.497 38.935 100.866 40.1863 100.866 41.7715C100.866 43.3504 100.5 44.5986 99.7663 45.516C99.033 46.4334 98.0449 46.8921 96.802 46.8921C96.0936 46.8921 95.469 46.7329 94.9284 46.4146C94.3877 46.0901 93.9807 45.647 93.7072 45.0854H93.6606V50H91.3395V36.81H93.6047V38.5231H93.6513C93.9372 37.9365 94.3504 37.4778 94.8911 37.147C95.4318 36.81 96.0563 36.6415 96.7647 36.6415ZM96.0563 44.9824C96.8082 44.9824 97.4017 44.6953 97.8367 44.1211C98.2717 43.5407 98.4893 42.7575 98.4893 41.7715C98.4893 40.7917 98.2686 40.0116 97.8274 39.4312C97.3924 38.8508 96.802 38.5606 96.0563 38.5606C95.3354 38.5606 94.7544 38.8539 94.3132 39.4405C93.8719 40.0272 93.6482 40.8041 93.642 41.7715C93.6482 42.745 93.8719 43.5251 94.3132 44.1118C94.7544 44.6922 95.3354 44.9824 96.0563 44.9824Z" fill="#2A81DD"/>
<path d="M105.863 42.9323H108.193C108.268 43.5501 108.585 44.0494 109.144 44.4301C109.703 44.8045 110.396 44.9917 111.223 44.9917C112.031 44.9917 112.689 44.8108 113.199 44.4488C113.715 44.0868 113.973 43.625 113.973 43.0633C113.973 42.5765 113.786 42.1834 113.413 41.8838C113.04 41.578 112.431 41.3253 111.586 41.1256L109.843 40.7137C108.606 40.4266 107.687 39.9804 107.084 39.375C106.487 38.7696 106.189 37.9833 106.189 37.016C106.189 35.824 106.655 34.8566 107.587 34.114C108.519 33.3713 109.722 33 111.195 33C112.674 33 113.864 33.3682 114.765 34.1046C115.672 34.8348 116.141 35.7959 116.172 36.9879H113.879C113.823 36.3576 113.553 35.8645 113.068 35.5088C112.584 35.1468 111.953 34.9659 111.176 34.9659C110.418 34.9659 109.803 35.1375 109.33 35.4807C108.864 35.824 108.631 36.2764 108.631 36.8381C108.631 37.2874 108.811 37.6525 109.172 37.9334C109.539 38.2142 110.135 38.4545 110.962 38.6542L112.509 39.0099C113.87 39.322 114.858 39.7775 115.473 40.3767C116.089 40.9758 116.396 41.7777 116.396 42.7825C116.396 44.0619 115.918 45.0791 114.961 45.8343C114.01 46.5832 112.72 46.9576 111.092 46.9576C109.539 46.9576 108.289 46.5988 107.345 45.8811C106.406 45.1571 105.912 44.1742 105.863 42.9323Z" fill="#2A81DD"/>
<path d="M118.624 34.4884H120.945V36.81H122.809V38.6074H120.945V43.7654C120.945 44.1711 121.041 44.4706 121.234 44.6641C121.427 44.8576 121.728 44.9543 122.138 44.9543C122.412 44.9543 122.632 44.9387 122.8 44.9075V46.6861C122.52 46.7485 122.12 46.7797 121.598 46.7797C120.529 46.7797 119.764 46.5738 119.304 46.1619C118.851 45.75 118.624 45.0604 118.624 44.0931V38.6074H117.207V36.81H118.624V34.4884Z" fill="#2A81DD"/>
<path d="M132.066 45.5534C131.202 46.4708 130.04 46.9295 128.58 46.9295C127.119 46.9295 125.957 46.4708 125.093 45.5534C124.229 44.6298 123.798 43.3691 123.798 41.7715C123.798 40.1801 124.233 38.9225 125.103 37.9989C125.973 37.069 127.132 36.6041 128.58 36.6041C130.034 36.6041 131.193 37.069 132.057 37.9989C132.927 38.9225 133.362 40.1801 133.362 41.7715C133.362 43.3691 132.93 44.6298 132.066 45.5534ZM126.808 44.2148C127.243 44.7952 127.834 45.0854 128.58 45.0854C129.325 45.0854 129.916 44.7952 130.351 44.2148C130.786 43.6344 131.003 42.8199 131.003 41.7715C131.003 40.7293 130.786 39.918 130.351 39.3376C129.916 38.7509 129.325 38.4576 128.58 38.4576C127.84 38.4576 127.25 38.7509 126.808 39.3376C126.373 39.918 126.156 40.7293 126.156 41.7715C126.156 42.8199 126.373 43.6344 126.808 44.2148Z" fill="#2A81DD"/>
<path d="M134.853 46.7329V36.81H137.081V38.5419H137.128C137.295 37.9365 137.584 37.4684 137.994 37.1377C138.411 36.8069 138.911 36.6415 139.495 36.6415C139.7 36.6415 139.943 36.6727 140.222 36.7351V38.8414C139.992 38.754 139.679 38.7104 139.281 38.7104C138.622 38.7104 138.106 38.9101 137.733 39.3095C137.361 39.7089 137.174 40.2581 137.174 40.957V46.7329H134.853Z" fill="#2A81DD"/>
<path d="M145.303 38.4108C144.656 38.4108 144.116 38.6355 143.681 39.0848C143.252 39.5279 143.013 40.0989 142.963 40.7979H147.577C147.552 40.0927 147.332 39.5185 146.915 39.0754C146.499 38.6323 145.961 38.4108 145.303 38.4108ZM147.586 43.7654H149.758C149.609 44.7078 149.134 45.4723 148.332 46.0589C147.53 46.6393 146.549 46.9295 145.386 46.9295C143.907 46.9295 142.745 46.4739 141.9 45.5628C141.055 44.6454 140.632 43.3941 140.632 41.8089C140.632 40.2362 141.052 38.9756 141.891 38.027C142.736 37.0784 143.87 36.6041 145.293 36.6041C146.692 36.6041 147.801 37.0565 148.621 37.9615C149.441 38.8601 149.852 40.0646 149.852 41.5749V42.3332H142.944V42.4736C142.944 43.2724 143.168 43.9152 143.615 44.402C144.069 44.8888 144.675 45.1322 145.433 45.1322C145.968 45.1322 146.427 45.0105 146.813 44.7671C147.204 44.5174 147.462 44.1836 147.586 43.7654Z" fill="#2A81DD"/>
<path d="M67.4404 16.3953V24.3697H70.554C71.8084 24.3697 72.4804 24.1457 73.1412 23.4849C74.0036 22.6225 74.2612 21.4353 74.2612 20.2481C74.2612 18.9713 73.8468 17.8961 73.0852 17.2129C72.3236 16.5297 71.4612 16.3953 70.4756 16.3953H67.4404ZM68.8292 17.5825H70.386C72.1332 17.5825 72.8612 18.6801 72.8612 20.3153C72.8612 21.9505 72.346 23.1937 70.4756 23.1937H68.8292V17.5825Z" fill="#2A81DD"/>
<path d="M78.032 18.4225C76.24 18.4225 75.0864 19.6209 75.0864 21.4801C75.0864 23.3617 76.2288 24.5489 78.032 24.5489C79.8016 24.5489 80.9216 23.3617 80.9216 21.4801C80.9216 19.6097 79.8016 18.4225 78.032 18.4225ZM78.0096 19.4305C79.0176 19.4305 79.6336 20.2033 79.6336 21.4689C79.6336 22.7681 79.0288 23.5521 78.0208 23.5521C76.9904 23.5521 76.3744 22.7793 76.3744 21.4801C76.3744 20.2145 77.0016 19.4305 78.0096 19.4305Z" fill="#2A81DD"/>
<path d="M81.4567 18.5905L83.2487 24.3697H84.5927L85.6679 20.0801L86.7543 24.3697H88.0647L89.8903 18.5905H88.5911L87.3927 22.9249L86.3287 18.5905H85.0407L83.9543 22.9249L82.8119 18.5905H81.4567Z" fill="#2A81DD"/>
<path d="M91.9323 18.5905H90.7227V24.3697H91.9995V21.2561C91.9995 19.9233 92.6379 19.4977 93.4107 19.4977C94.4299 19.4977 94.5307 20.2145 94.5307 21.0097V24.3697H95.8075V20.5169C95.8075 19.2065 95.1803 18.4337 93.8475 18.4337C92.9851 18.4337 92.4139 18.7473 91.9323 19.4417V18.5905Z" fill="#2A81DD"/>
<path d="M98.4531 16.3953H97.1875V24.3697H98.4531V16.3953Z" fill="#2A81DD"/>
<path d="M102.521 18.4225C100.729 18.4225 99.5755 19.6209 99.5755 21.4801C99.5755 23.3617 100.718 24.5489 102.521 24.5489C104.291 24.5489 105.411 23.3617 105.411 21.4801C105.411 19.6097 104.291 18.4225 102.521 18.4225ZM102.499 19.4305C103.507 19.4305 104.123 20.2033 104.123 21.4689C104.123 22.7681 103.518 23.5521 102.51 23.5521C101.48 23.5521 100.864 22.7793 100.864 21.4801C100.864 20.2145 101.491 19.4305 102.499 19.4305Z" fill="#2A81DD"/>
<path d="M106.427 20.3713H107.637C107.738 19.6209 108.096 19.3409 108.925 19.3409C109.731 19.3409 110.112 19.6209 110.112 20.2145C110.112 20.4273 110.09 20.5617 110.034 20.6289C109.911 20.7969 109.653 20.8529 108.768 20.9649C107.615 21.1105 106.181 21.2561 106.181 22.7905C106.181 23.8545 106.931 24.5153 108.13 24.5153C108.891 24.5153 109.631 24.3249 110.157 23.8209C110.247 24.3249 110.605 24.5153 111.098 24.5153C111.344 24.5153 111.523 24.4929 111.927 24.3921V23.4961C111.77 23.5185 111.725 23.5185 111.635 23.5185C111.4 23.5185 111.333 23.4289 111.333 23.0929V20.1585C111.333 18.9153 110.325 18.4113 108.959 18.4113C107.547 18.4113 106.573 18.9489 106.427 20.3713ZM110.101 21.4689V22.1521C110.101 22.4993 110.112 22.8801 109.843 23.1489C109.552 23.4401 109.059 23.6081 108.533 23.6081C107.872 23.6081 107.491 23.2945 107.491 22.7457C107.491 21.9841 108.163 21.8721 108.757 21.7825C109.216 21.7153 109.687 21.7041 110.101 21.4689Z" fill="#2A81DD"/>
<path d="M118.184 16.3953H116.929V19.3409C116.526 18.7473 115.91 18.4337 115.092 18.4337C113.491 18.4337 112.472 19.6097 112.472 21.4689C112.472 23.3393 113.502 24.5265 115.137 24.5265C116 24.5265 116.627 24.2017 116.985 23.5745V24.3697H118.184V16.3953ZM115.328 19.4641C116.358 19.4641 116.963 20.2033 116.963 21.4689C116.963 22.7457 116.369 23.4961 115.372 23.4961C114.376 23.4961 113.76 22.7121 113.76 21.4465C113.76 20.2145 114.364 19.4641 115.328 19.4641Z" fill="#2A81DD"/>
<path d="M123.892 18.5905H122.682V24.3697H123.959V21.2561C123.959 19.9233 124.597 19.4977 125.37 19.4977C126.389 19.4977 126.49 20.2145 126.49 21.0097V24.3697H127.767V20.5169C127.767 19.2065 127.14 18.4337 125.807 18.4337C124.944 18.4337 124.373 18.7473 123.892 19.4417V18.5905Z" fill="#2A81DD"/>
<path d="M131.779 18.4225C129.987 18.4225 128.833 19.6209 128.833 21.4801C128.833 23.3617 129.976 24.5489 131.779 24.5489C133.549 24.5489 134.669 23.3617 134.669 21.4801C134.669 19.6097 133.549 18.4225 131.779 18.4225ZM131.757 19.4305C132.765 19.4305 133.381 20.2033 133.381 21.4689C133.381 22.7681 132.776 23.5521 131.768 23.5521C130.737 23.5521 130.121 22.7793 130.121 21.4801C130.121 20.2145 130.749 19.4305 131.757 19.4305Z" fill="#2A81DD"/>
<path d="M135.204 18.5905L136.996 24.3697H138.34L139.415 20.0801L140.501 24.3697H141.812L143.637 18.5905H142.338L141.14 22.9249L140.076 18.5905H138.788L137.701 22.9249L136.559 18.5905H135.204Z" fill="#2A81DD"/>
</svg>
