<svg width="46" height="25" viewBox="0 0 46 25" fill="none" xmlns="http://www.w3.org/2000/svg">
<g clip-path="url(#clip0_559_124)">
<path d="M16.7116 24.9989C17.9004 24.9989 18.8641 24.0381 18.8641 22.853C18.8641 21.6678 17.9004 20.707 16.7116 20.707C15.5228 20.707 14.5591 21.6678 14.5591 22.853C14.5591 24.0381 15.5228 24.9989 16.7116 24.9989Z" fill="#EACA5C"/>
<path d="M35.0597 24.9989C36.2485 24.9989 37.2122 24.0381 37.2122 22.853C37.2122 21.6678 36.2485 20.707 35.0597 20.707C33.8709 20.707 32.9072 21.6678 32.9072 22.853C32.9072 24.0381 33.8709 24.9989 35.0597 24.9989Z" fill="#EACA5C"/>
<path d="M8.46151 13.1767C7.84076 12.0193 6.11829 0.957814 6.13132 0.864512C5.96735 0.59595 5.73144 0.378348 5.45015 0.236206C5.16447 0.0832582 4.84565 0.0021744 4.52139 0C4.45449 0.000329653 4.38881 0.0178187 4.33066 0.0507842C4.26906 0.0826719 4.2039 0.120465 4.13875 0.16062L4.07833 0.278723C4.07833 0.278723 3.60447 2.2534 3.39242 3.26672C3.18037 4.28004 2.94818 5.291 2.70533 6.30433C2.46248 7.31765 2.19593 8.31798 1.90925 9.3124C1.62256 10.3068 1.28612 11.2753 0.909407 12.2284C0.869129 12.3217 0.801604 12.4646 0.708017 12.6512C0.61443 12.8378 0.511366 13.0338 0.410672 13.2275C0.309977 13.4212 0.214021 13.6019 0.128726 13.7696C0.0434318 13.9373 -0.0691094 14.1712 0.0600169 14.3601C0.204543 14.5692 1.03853 14.9069 1.1878 14.9506C1.31921 14.9883 1.45504 15.0086 1.59176 15.0109C1.63204 15.0109 2.14855 14.9199 2.33809 14.6566C2.54368 14.3645 2.72249 14.0546 2.87236 13.7306C3.03753 13.385 3.18231 13.0301 3.30594 12.6677C3.42441 12.3134 3.51326 12.0607 3.56893 11.913C3.86606 11.8586 4.16577 11.8192 4.46689 11.7949C4.78201 11.7666 5.08172 11.7548 5.36485 11.7548H5.83871C5.99758 11.7532 6.15624 11.7667 6.31257 11.7949C6.44643 12.1233 8.67001 13.5629 8.46151 13.1767ZM5.53663 10.8536C5.3602 10.8195 5.18088 10.8025 5.00117 10.8029C4.81281 10.8029 4.62801 10.8099 4.44676 10.8229C4.2655 10.8359 4.0807 10.856 3.89116 10.8832C4.15889 10.0502 4.39582 9.21517 4.60194 8.37821C4.81163 7.54086 5.00828 6.69879 5.19427 5.85435C5.28667 6.69918 5.38736 7.5574 5.49635 8.429C5.6002 9.28381 5.7895 10.1261 6.06143 10.9434C5.88136 10.9162 5.70248 10.8855 5.53663 10.8536Z" fill="#2A81DD"/>
<path d="M15.461 6.00439C15.4614 6.00947 15.4629 6.01441 15.4653 6.01888C15.4678 6.02336 15.4711 6.02727 15.4752 6.03038C15.4704 6.01266 15.4657 6.00439 15.461 6.00439ZM14.7241 9.00539C14.7377 9.0065 14.7512 9.00887 14.7644 9.01247C14.7907 9.01956 14.8177 9.02314 14.845 9.0231C14.8063 9.00915 14.7652 9.00313 14.7241 9.00539Z" fill="#2A81DD"/>
<path d="M17.1774 7.74508C17.185 8.05553 17.1397 8.36501 17.0435 8.66037C16.9547 8.90957 16.7284 9.10562 16.3624 9.25089H16.2178L16.0354 9.23081H15.9169L15.8163 9.21073L15.7961 9.19066C15.5673 9.13784 15.3455 9.05857 15.1351 8.95445C14.9282 8.85767 14.7451 8.717 14.5984 8.54227L14.5167 8.30607C14.6085 8.05643 14.7198 7.81436 14.8496 7.5821C14.9721 7.33934 15.0246 7.06745 15.0012 6.79671C14.6037 7.15225 14.2544 7.55801 13.9623 8.00372C13.6731 8.44568 13.4264 8.91387 13.2254 9.40206C13.0212 9.89778 12.846 10.4049 12.7006 10.9209C12.553 11.4445 12.412 11.9562 12.2777 12.4562C12.2601 12.5389 12.2565 12.6239 12.2671 12.7078C12.2671 12.8353 12.2801 12.9688 12.2872 13.1093C12.2943 13.2498 12.3002 13.3916 12.3073 13.5321C12.3144 13.6727 12.318 13.7683 12.318 13.8238V14.3269L12.2374 14.5076C12.1275 14.548 12.0111 14.5684 11.8939 14.5679C11.5641 14.5932 11.2347 14.5146 10.9522 14.3431C10.6697 14.1717 10.4484 13.9161 10.3195 13.6124C10.1772 13.3005 10.0852 12.968 10.047 12.6274C10 12.2569 9.97667 11.8837 9.97715 11.5102C9.97715 11.1358 9.99018 10.7685 10.0174 10.4142C10.0447 10.0599 10.0577 9.7481 10.0577 9.47883C10.0579 8.93428 10.0274 8.39016 9.96649 7.84901C9.90636 7.31452 9.87631 6.7771 9.87645 6.23927V6.35737C9.87645 6.24872 9.87645 6.1436 9.86579 6.03495C9.85513 5.9263 9.84802 5.82118 9.83618 5.71371C9.81397 5.67788 9.8002 5.6375 9.7959 5.59561C9.81996 5.50972 9.86902 5.43287 9.93687 5.37476H10.0376C10.1593 5.37683 10.2797 5.40084 10.393 5.44562C10.5197 5.49286 10.6382 5.54364 10.7484 5.59561L10.8668 5.65584C11.0995 5.75604 11.3065 5.90745 11.4722 6.09873C11.6301 6.28844 11.7565 6.50216 11.8465 6.73176C11.9403 6.96657 12.0144 7.20872 12.068 7.45573C12.1214 7.70492 12.1616 7.94821 12.1865 8.19033C12.2989 7.95392 12.4268 7.7251 12.5691 7.50533C12.7367 7.24674 12.9194 6.99828 13.1165 6.76128C13.3141 6.52595 13.5274 6.3042 13.755 6.09755C13.948 5.91487 14.1733 5.7695 14.4196 5.66883L14.4397 5.64875V5.66883L14.4598 5.64875C14.5783 5.62159 14.6968 5.59088 14.8152 5.559C14.9374 5.5244 15.0638 5.5073 15.1908 5.50821L15.1078 5.52829C15.3997 5.46985 15.7028 5.50886 15.9703 5.63931C16.2202 5.76713 16.4409 5.94529 16.6183 6.1625C16.8025 6.38589 16.9427 6.64193 17.0317 6.91718C17.1259 7.1832 17.1752 7.46297 17.1774 7.74508Z" fill="#2A81DD"/>
<path d="M20.71 5.7232H20.7313C20.7361 5.71712 20.7422 5.71218 20.7492 5.70871C20.7561 5.70524 20.7638 5.70333 20.7716 5.70312C20.7604 5.70188 20.7492 5.70303 20.7386 5.7065C20.7279 5.70996 20.7182 5.71565 20.71 5.7232Z" fill="#2A81DD"/>
<path d="M25.9127 14.6553C25.8603 14.5972 25.8032 14.5435 25.7421 14.4946C25.6868 14.4524 25.6295 14.413 25.5703 14.3765C25.5287 14.357 25.4937 14.3258 25.4696 14.2868C25.3355 14.0556 25.2399 13.8044 25.1865 13.5427C25.119 13.2475 25.068 12.9865 25.0254 12.7573C24.9464 12.2397 24.8969 11.7181 24.8773 11.1948C24.8572 10.6799 24.8418 10.1591 24.837 9.63589C24.8323 9.11269 24.8169 8.5895 24.7968 8.0663C24.7766 7.54311 24.7316 7.02818 24.6653 6.51798V6.55813L24.6451 6.47782V6.49554L24.5444 6.21327L24.6048 6.29358C24.4966 6.10532 24.34 5.9492 24.1511 5.84125C24.0401 5.75829 23.9111 5.70238 23.7745 5.67797C23.638 5.65357 23.4975 5.66135 23.3645 5.70071C23.2757 5.72078 23.2461 5.74322 23.2733 5.77157L23.1122 5.95226L23.0316 6.15304H22.8291C22.6726 6.07905 22.5062 6.02812 22.3351 6.00187C22.1653 5.97191 21.9933 5.95533 21.8209 5.95226H21.6788L21.6385 5.97234C21.0101 5.97079 20.3993 6.17864 19.903 6.56286C19.3679 6.96855 18.9131 7.46997 18.562 8.0415C18.191 8.63365 17.9025 9.27333 17.7043 9.94296C17.5148 10.5389 17.4127 11.1591 17.401 11.7842C17.3969 12.1655 17.4825 12.5425 17.651 12.8849C17.8128 13.2203 18.039 13.5208 18.3168 13.7695C18.892 14.2801 19.635 14.5629 20.4053 14.5643H20.5237C20.5901 14.5643 20.6256 14.5572 20.6256 14.5442H20.5439C20.6623 14.5171 20.7465 14.497 20.7808 14.484C20.8583 14.452 20.9325 14.4124 21.0023 14.3659L20.9822 14.386C21.1563 14.3328 21.3305 14.1675 21.507 13.8935C21.6959 13.5933 21.8645 13.2808 22.0117 12.9581C22.1676 12.6199 22.3056 12.2738 22.4251 11.9212C22.5436 11.5799 22.6217 11.3153 22.6774 11.1275C22.7307 11.5822 22.7959 12.0428 22.8895 12.5046C22.9686 12.9447 23.1199 13.3689 23.3373 13.76C23.5413 14.1319 23.8358 14.4466 24.1938 14.6753C24.5575 14.9115 25.0337 15.0296 25.6272 15.0296C25.7071 15.0282 25.7865 15.0179 25.8641 14.9989C25.9008 14.9948 25.9345 14.9771 25.9586 14.9493C25.9828 14.9215 25.9956 14.8857 25.9944 14.8489C25.993 14.7764 25.9637 14.7071 25.9127 14.6553ZM22.1526 7.86553C22.0638 8.19976 21.9607 8.5895 21.8399 9.03239C21.719 9.47527 21.5816 9.9406 21.4359 10.4307C21.2974 10.8913 21.1356 11.3446 20.9514 11.7889C20.7994 12.159 20.6101 12.5128 20.3863 12.8447C20.1849 13.1341 19.9753 13.3053 19.7608 13.3573C19.6623 13.066 19.6146 12.76 19.6199 12.4526C19.6334 11.9844 19.7131 11.5204 19.8568 11.0744C20.0142 10.5339 20.22 10.0086 20.4716 9.5048C20.7168 9.00679 21.0074 8.53237 21.34 8.08756C21.6051 7.71035 21.949 7.39486 22.3481 7.16282C22.3007 7.29509 22.2356 7.5313 22.1526 7.86553Z" fill="#2A81DD"/>
<path d="M32.8551 5.97493L32.3303 7.28233C31.952 8.26022 31.6192 9.24953 31.3317 10.2503C31.0442 11.251 30.7247 12.2466 30.3733 13.2371C30.3006 13.4609 30.2128 13.6795 30.1103 13.8914C30.0063 14.1051 29.8851 14.3101 29.7478 14.5043L29.505 14.5645V14.5846C29.4793 14.624 29.4401 14.6525 29.3948 14.6649C29.352 14.6773 29.3078 14.6841 29.2633 14.685C29.1121 14.6797 28.9625 14.6526 28.819 14.6047C28.645 14.5542 28.4758 14.4886 28.3132 14.4087C28.1531 14.3295 28.0012 14.235 27.8595 14.1264C27.7387 14.0429 27.6386 13.9331 27.5669 13.8051C27.3131 13.3147 27.1233 12.794 27.0018 12.2556C26.8407 11.612 26.7045 10.9412 26.5978 10.2479C26.4912 9.55463 26.4024 8.85782 26.3372 8.18818C26.2721 7.51854 26.2282 6.95282 26.2188 6.49813L26.3799 6.31743H26.4403C26.5527 6.32189 26.6643 6.33852 26.7732 6.36703C26.9183 6.40156 27.0602 6.44858 27.1973 6.50758C27.3321 6.56491 27.4607 6.63575 27.5811 6.71898C27.6738 6.77456 27.7473 6.85694 27.792 6.95518C28.0289 7.86694 28.2516 8.81294 28.4483 9.78965C28.6449 10.7664 28.8143 11.7218 28.9624 12.6466C28.9884 12.5131 29.0536 12.2367 29.1543 11.8198C29.255 11.4029 29.377 10.9223 29.518 10.3707C29.659 9.81918 29.813 9.24402 29.9824 8.64051C30.1518 8.03701 30.3176 7.48192 30.4858 6.97172C30.6211 6.54286 30.7829 6.12278 30.9704 5.71392C31.1244 5.38442 31.2559 5.22144 31.3637 5.22144C31.4898 5.22834 31.6149 5.24853 31.7368 5.28167C32.0682 5.36398 32.3825 5.50348 32.6656 5.69385C32.7888 5.78715 32.8551 5.88163 32.8551 5.97493Z" fill="#2A81DD"/>
<path d="M36.3887 5.72333H36.4088C36.4136 5.71726 36.4198 5.71231 36.4267 5.70884C36.4337 5.70537 36.4413 5.70347 36.4491 5.70325C36.4382 5.70219 36.4271 5.70342 36.4167 5.70688C36.4063 5.71034 36.3968 5.71594 36.3887 5.72333Z" fill="#2A81DD"/>
<path d="M41.5917 14.6553C41.5393 14.5972 41.4822 14.5435 41.4211 14.4946C41.3658 14.4524 41.3085 14.413 41.2493 14.3765C41.2077 14.357 41.1727 14.3258 41.1486 14.2868C41.0145 14.0556 40.9189 13.8044 40.8655 13.5427C40.7979 13.2475 40.747 12.9865 40.7044 12.7573C40.6243 12.241 40.5736 11.7205 40.5527 11.1984C40.5326 10.6835 40.5172 10.1626 40.5124 9.63943C40.5077 9.11624 40.4923 8.59304 40.4722 8.06985C40.452 7.54665 40.407 7.03172 40.3407 6.52152V6.56167L40.3205 6.48136V6.49554L40.2198 6.21327L40.2802 6.29358C40.172 6.10532 40.0154 5.9492 39.8265 5.84125C39.7155 5.75829 39.5865 5.70238 39.45 5.67797C39.3134 5.65357 39.173 5.66135 39.0399 5.70071C38.9511 5.72078 38.9215 5.74322 38.9487 5.77157L38.7876 5.95226L38.707 6.15304H38.5009C38.3445 6.07905 38.1781 6.02812 38.0069 6.00187C37.8371 5.97191 37.6652 5.95533 37.4928 5.95226H37.3506L37.3104 5.97234C36.682 5.97079 36.0711 6.17864 35.5748 6.56286C35.0401 6.97017 34.5862 7.4732 34.2362 8.04623C33.8652 8.63838 33.5767 9.27805 33.3785 9.94768C33.1891 10.5437 33.0869 11.1638 33.0753 11.7889C33.0726 12.1688 33.159 12.5442 33.3276 12.8849C33.4894 13.2203 33.7156 13.5208 33.9934 13.7695C34.5686 14.2801 35.3116 14.5629 36.0819 14.5643H36.2003C36.2667 14.5643 36.3022 14.5572 36.3022 14.5442H36.2205C36.3389 14.5171 36.4231 14.497 36.4633 14.484C36.5409 14.452 36.6151 14.4124 36.6849 14.3659L36.6647 14.386C36.8389 14.3328 37.013 14.1675 37.1895 13.8935C37.3785 13.5933 37.5471 13.2808 37.6942 12.9581C37.8501 12.6199 37.9881 12.2738 38.1076 11.9212C38.2261 11.5799 38.3043 11.3153 38.3599 11.1275C38.4133 11.5822 38.4784 12.0428 38.572 12.5046C38.6498 12.9453 38.7999 13.3703 39.0162 13.7624C39.2203 14.1342 39.5148 14.449 39.8727 14.6777C40.2364 14.9139 40.7126 15.032 41.3062 15.032C41.386 15.0305 41.4655 15.0202 41.5431 15.0013C41.5797 14.9972 41.6135 14.9794 41.6376 14.9517C41.6617 14.9239 41.6745 14.8881 41.6734 14.8513C41.6725 14.7779 41.6432 14.7077 41.5917 14.6553ZM37.8292 7.86553C37.7404 8.19976 37.6373 8.5895 37.5165 9.03239C37.3956 9.47527 37.2582 9.9406 37.1125 10.4307C36.974 10.8913 36.8122 11.3446 36.628 11.7889C36.476 12.159 36.2867 12.5128 36.0629 12.8447C35.8615 13.1341 35.6519 13.3053 35.4374 13.3573C35.3389 13.066 35.2912 12.76 35.2965 12.4526C35.31 11.9844 35.3897 11.5204 35.5334 11.0744C35.6908 10.5339 35.8966 10.0086 36.1482 9.5048C36.3934 9.00679 36.684 8.53237 37.0166 8.08756C37.2817 7.71035 37.6256 7.39486 38.0247 7.16282C37.9797 7.29509 37.9145 7.5313 37.8292 7.86553Z" fill="#2A81DD"/>
<path d="M7.97283 11.4312C8.11548 11.8111 8.28328 12.1812 8.47512 12.539C8.63036 12.836 8.82435 13.1112 9.05204 13.3574C9.57675 13.961 10.1735 14.4984 10.829 14.9577C12.1601 15.8924 13.6288 16.6152 15.1826 17.1001C16.7571 17.601 18.3778 17.944 20.0207 18.124C21.68 18.2951 23.3485 18.3621 25.0163 18.3248C28.3653 18.2268 31.719 17.7933 35.036 17.1438L36.2799 16.9005L37.5178 16.6194C38.3471 16.4316 39.1692 16.2486 39.9878 16.0289L41.2163 15.7077C41.6274 15.6049 42.0361 15.4939 42.4436 15.3711L43.6661 15.0168L44.2774 14.8396L44.5831 14.751L44.7359 14.7061L44.8117 14.6837C44.8449 14.7014 44.8378 14.5798 44.9408 14.8467L45.7547 17.7024C45.8056 17.9823 45.7464 17.8748 45.7274 17.9067L45.6481 17.9256L45.4893 17.9658L45.1706 18.0437L44.5345 18.202L43.2634 18.5161C42.8416 18.6248 42.4152 18.7216 41.9863 18.8126L40.7057 19.0913C39.854 19.2873 38.9915 19.4456 38.1303 19.6039L36.8426 19.8412L35.5395 20.042C32.0732 20.5688 28.5572 20.9054 25.0151 20.831C23.2376 20.7881 21.4646 20.6331 19.7067 20.3668C17.9316 20.087 16.1893 19.6296 14.5061 19.0015C12.7974 18.3621 11.1987 17.4616 9.76756 16.3324C9.05261 15.7511 8.40066 15.0968 7.82238 14.3802C7.5316 14.0168 7.26601 13.634 7.02748 13.2346C6.90902 13.035 6.79055 12.8259 6.68986 12.6145C6.64011 12.5035 6.58798 12.3972 6.54059 12.2839C6.49321 12.1705 6.45056 12.0689 6.39844 11.9071L7.97283 11.4312Z" fill="#2A81DD"/>
</g>
<defs>
<clipPath id="clip0_559_124">
<rect width="45.7746" height="25" fill="white"/>
</clipPath>
</defs>
</svg>
