<svg width="74" height="40" viewBox="0 0 74 40" fill="none" xmlns="http://www.w3.org/2000/svg">
<g clip-path="url(#clip0_468_2563)">
<path d="M26.7389 39.9981C28.6409 39.9981 30.1829 38.4608 30.1829 36.5646C30.1829 34.6683 28.6409 33.1311 26.7389 33.1311C24.8368 33.1311 23.2949 34.6683 23.2949 36.5646C23.2949 38.4608 24.8368 39.9981 26.7389 39.9981Z" fill="#EACA5C"/>
<path d="M56.0953 39.9981C57.9973 39.9981 59.5392 38.4608 59.5392 36.5646C59.5392 34.6683 57.9973 33.1311 56.0953 33.1311C54.1932 33.1311 52.6512 34.6683 52.6512 36.5646C52.6512 38.4608 54.1932 39.9981 56.0953 39.9981Z" fill="#EACA5C"/>
<path d="M13.5386 21.0828C12.5454 19.2309 9.78942 1.5325 9.81027 1.38322C9.54792 0.953519 9.17047 0.605358 8.7204 0.377929C8.26331 0.133213 7.75319 0.00347905 7.23438 0C7.12735 0.000527445 7.02226 0.02851 6.92921 0.0812547C6.83065 0.132275 6.7264 0.192744 6.62215 0.256992L6.52549 0.445956C6.52549 0.445956 5.76731 3.60544 5.42803 5.22676C5.08875 6.84807 4.71725 8.46561 4.32868 10.0869C3.94012 11.7082 3.51365 13.3088 3.05495 14.8998C2.59626 16.4909 2.05796 18.0404 1.45521 19.5654C1.39076 19.7147 1.28273 19.9433 1.13299 20.2419C0.983247 20.5404 0.818345 20.8541 0.657233 21.164C0.496122 21.4739 0.342592 21.763 0.206121 22.0314C0.0696496 22.2997 -0.110416 22.6738 0.0961856 22.9762C0.327428 23.3107 1.66181 23.8511 1.90064 23.921C2.11089 23.9813 2.32822 24.0137 2.54698 24.0174C2.61142 24.0174 3.43783 23.8719 3.7411 23.4505C4.07004 22.9832 4.35614 22.4874 4.59594 21.969C4.86021 21.4161 5.09185 20.8482 5.28967 20.2683C5.47921 19.7014 5.62137 19.297 5.71045 19.0608C6.18586 18.9737 6.66539 18.9107 7.14719 18.8719C7.65137 18.8265 8.13092 18.8076 8.58393 18.8076H9.3421C9.59629 18.8052 9.85014 18.8267 10.1003 18.8719C10.3145 19.3972 13.8722 21.7007 13.5386 21.0828ZM8.85876 17.3658C8.57648 17.3112 8.28957 17.284 8.00203 17.2846C7.70065 17.2846 7.40497 17.2959 7.11497 17.3167C6.82497 17.3375 6.52928 17.3696 6.22601 17.4131C6.65438 16.0802 7.03346 14.7443 7.36327 13.4051C7.69876 12.0654 8.0134 10.7181 8.31098 9.36697C8.45883 10.7187 8.61994 12.0918 8.79432 13.4864C8.96047 14.8541 9.26335 16.2018 9.69844 17.5094C9.41033 17.466 9.12412 17.4169 8.85876 17.3658Z" fill="#2A81DD"/>
<path d="M24.7372 9.60693C24.7379 9.61506 24.7403 9.62295 24.7442 9.63011C24.7481 9.63727 24.7535 9.64354 24.76 9.64851C24.7524 9.62016 24.7448 9.60693 24.7372 9.60693ZM23.5583 14.4085C23.5801 14.4103 23.6017 14.4141 23.6227 14.4199C23.6647 14.4312 23.7081 14.4369 23.7516 14.4369C23.6897 14.4145 23.624 14.4049 23.5583 14.4085Z" fill="#2A81DD"/>
<path d="M27.4838 12.3921C27.4959 12.8888 27.4234 13.384 27.2696 13.8566C27.1274 14.2553 26.7654 14.569 26.1797 14.8014H25.9485L25.6566 14.7693H25.467L25.3059 14.7372L25.2737 14.705C24.9076 14.6205 24.5526 14.4937 24.216 14.3271C23.8851 14.1723 23.592 13.9472 23.3574 13.6676L23.2266 13.2897C23.3735 12.8903 23.5516 12.503 23.7592 12.1314C23.9552 11.7429 24.0392 11.3079 24.0019 10.8747C23.3658 11.4436 22.807 12.0928 22.3396 12.806C21.8768 13.5131 21.4821 14.2622 21.1606 15.0433C20.8338 15.8365 20.5534 16.6478 20.3209 17.4734C20.0846 18.3111 19.8591 19.13 19.6443 19.9299C19.6161 20.0622 19.6104 20.1982 19.6272 20.3324C19.6272 20.5365 19.6481 20.75 19.6594 20.9749C19.6708 21.1998 19.6803 21.4265 19.6916 21.6514C19.703 21.8763 19.7087 22.0293 19.7087 22.1181V22.9231L19.5798 23.2122C19.4039 23.2769 19.2177 23.3095 19.0301 23.3086C18.5025 23.3491 17.9755 23.2233 17.5235 22.949C17.0715 22.6747 16.7173 22.2657 16.5111 21.7799C16.2834 21.2808 16.1362 20.7489 16.0752 20.2039C15.9999 19.611 15.9626 19.0139 15.9633 18.4163C15.9633 17.8173 15.9842 17.2296 16.0278 16.6627C16.0714 16.0958 16.0922 15.597 16.0922 15.1661C16.0925 14.2949 16.0438 13.4242 15.9463 12.5584C15.8501 11.7032 15.802 10.8434 15.8022 9.98283V10.1718C15.8022 9.99795 15.8022 9.82977 15.7852 9.65592C15.7681 9.48207 15.7567 9.3139 15.7378 9.14194C15.7023 9.08461 15.6802 9.02001 15.6733 8.95297C15.7118 8.81555 15.7903 8.69258 15.8989 8.59961H16.06C16.2549 8.60293 16.4475 8.64134 16.6286 8.71299C16.8314 8.78857 17.021 8.86983 17.1973 8.95297L17.3868 9.04934C17.7592 9.20967 18.0903 9.45192 18.3554 9.75796C18.608 10.0615 18.8103 10.4035 18.9543 10.7708C19.1043 11.1465 19.2229 11.534 19.3088 11.9292C19.3941 12.3279 19.4585 12.7171 19.4983 13.1045C19.6782 12.7263 19.8827 12.3602 20.1105 12.0085C20.3786 11.5948 20.671 11.1973 20.9862 10.8181C21.3024 10.4415 21.6437 10.0867 22.0079 9.75607C22.3167 9.46379 22.6772 9.2312 23.0712 9.07013L23.1034 9.03801V9.07013L23.1356 9.03801C23.3252 8.99455 23.5147 8.94541 23.7043 8.89439C23.8997 8.83904 24.102 8.81168 24.3051 8.81314L24.1724 8.84526C24.6395 8.75176 25.1244 8.81418 25.5523 9.02289C25.9523 9.22741 26.3053 9.51246 26.5891 9.86C26.8839 10.2174 27.1083 10.6271 27.2506 11.0675C27.4014 11.4931 27.4802 11.9408 27.4838 12.3921Z" fill="#2A81DD"/>
<path d="M33.1359 9.15716H33.17C33.1778 9.14745 33.1876 9.13954 33.1987 9.13399C33.2098 9.12844 33.222 9.12538 33.2345 9.12504C33.2167 9.12306 33.1987 9.1249 33.1817 9.13044C33.1647 9.13598 33.1491 9.1451 33.1359 9.15716Z" fill="#2A81DD"/>
<path d="M41.4606 23.4487C41.3768 23.3558 41.2855 23.2698 41.1877 23.1917C41.0993 23.1242 41.0076 23.0611 40.9128 23.0027C40.8463 22.9714 40.7903 22.9215 40.7517 22.8591C40.5372 22.4893 40.3842 22.0872 40.2987 21.6686C40.1907 21.1962 40.1092 20.7786 40.0409 20.412C39.9145 19.5838 39.8354 18.7491 39.804 17.912C39.7718 17.0881 39.7472 16.2548 39.7396 15.4177C39.732 14.5806 39.7074 13.7434 39.6751 12.9063C39.6429 12.0692 39.5709 11.2453 39.4647 10.429V10.4933L39.4325 10.3648V10.3931L39.2714 9.94148L39.3681 10.07C39.1948 9.76876 38.9443 9.51896 38.6421 9.34624C38.4645 9.21351 38.2581 9.12404 38.0396 9.085C37.8211 9.04595 37.5964 9.05841 37.3836 9.12137C37.2414 9.1535 37.194 9.1894 37.2376 9.23475L36.9798 9.52387L36.8509 9.84511H36.5268C36.2765 9.72672 36.0103 9.64524 35.7364 9.60323C35.4647 9.55531 35.1897 9.52877 34.9138 9.52387H34.6864L34.6219 9.55599C33.6165 9.55351 32.6392 9.88607 31.8451 10.5008C30.9889 11.1499 30.2613 11.9522 29.6995 12.8666C29.1059 13.8141 28.6443 14.8376 28.3272 15.909C28.0241 16.8626 27.8607 17.8548 27.842 18.8549C27.8353 19.4651 27.9723 20.0683 28.2419 20.6161C28.5008 21.1527 28.8627 21.6336 29.3071 22.0314C30.2276 22.8484 31.4164 23.3008 32.6488 23.3032H32.8383C32.9445 23.3032 33.0013 23.2918 33.0013 23.271H32.8705C33.0601 23.2276 33.1947 23.1954 33.2496 23.1747C33.3737 23.1234 33.4924 23.0601 33.6041 22.9857L33.5718 23.0178C33.8505 22.9328 34.1291 22.6682 34.4115 22.2298C34.7138 21.7495 34.9836 21.2495 35.219 20.7332C35.4685 20.1921 35.6893 19.6383 35.8805 19.0741C36.07 18.528 36.1951 18.1047 36.2842 17.8043C36.3695 18.5318 36.4738 19.2688 36.6235 20.0076C36.7501 20.7118 36.9922 21.3905 37.34 22.0163C37.6664 22.6113 38.1377 23.1148 38.7104 23.4808C39.2923 23.8587 40.0542 24.0477 41.0038 24.0477C41.1316 24.0453 41.2588 24.0288 41.3829 23.9985C41.4415 23.9919 41.4955 23.9636 41.5341 23.9191C41.5728 23.8747 41.5932 23.8174 41.5914 23.7586C41.5891 23.6424 41.5423 23.5315 41.4606 23.4487ZM35.4445 12.5851C35.3024 13.1199 35.1375 13.7434 34.9441 14.4521C34.7508 15.1607 34.5309 15.9052 34.2978 16.6894C34.0761 17.4263 33.8174 18.1515 33.5226 18.8625C33.2794 19.4547 32.9764 20.0207 32.6184 20.5518C32.2962 21.0148 31.9607 21.2888 31.6177 21.3719C31.46 20.9058 31.3838 20.4163 31.3921 19.9245C31.4137 19.1753 31.5414 18.4329 31.7712 17.7193C32.023 16.8545 32.3523 16.014 32.7549 15.2079C33.1472 14.4111 33.6122 13.652 34.1443 12.9403C34.5684 12.3368 35.1187 11.832 35.7573 11.4608C35.6815 11.6724 35.5772 12.0503 35.4445 12.5851Z" fill="#2A81DD"/>
<path d="M52.5679 9.55984L51.7282 11.6517C51.1229 13.2163 50.5903 14.7992 50.1303 16.4004C49.6704 18.0015 49.1592 19.5945 48.5969 21.1793C48.4807 21.5373 48.3401 21.8871 48.1761 22.2261C48.0098 22.5682 47.8158 22.8962 47.5961 23.2069L47.2076 23.3032V23.3354C47.1666 23.3983 47.1039 23.444 47.0313 23.4638C46.9629 23.4837 46.8921 23.4945 46.8209 23.496C46.579 23.4874 46.3396 23.4442 46.1101 23.3675C45.8317 23.2866 45.5609 23.1816 45.3008 23.0538C45.0446 22.9272 44.8015 22.7759 44.5748 22.6022C44.3815 22.4687 44.2214 22.2928 44.1066 22.0882C43.7007 21.3035 43.3968 20.4704 43.2025 19.609C42.9447 18.5791 42.7268 17.5058 42.5562 16.3966C42.3856 15.2874 42.2434 14.1725 42.1392 13.101C42.0349 12.0296 41.9648 11.1245 41.9496 10.397L42.2074 10.1078H42.3041C42.484 10.115 42.6626 10.1416 42.8367 10.1872C43.069 10.2424 43.296 10.3177 43.5153 10.4121C43.7309 10.5038 43.9367 10.6171 44.1294 10.7503C44.2777 10.8393 44.3954 10.9711 44.4668 11.1282C44.8459 12.5871 45.2022 14.1007 45.5168 15.6634C45.8315 17.2261 46.1025 18.7549 46.3395 20.2344C46.3812 20.0209 46.4854 19.5787 46.6465 18.9117C46.8076 18.2447 47.0029 17.4756 47.2284 16.5931C47.454 15.7106 47.7004 14.7904 47.9714 13.8248C48.2425 12.8592 48.5078 11.971 48.777 11.1547C48.9934 10.4685 49.2523 9.7964 49.5522 9.14223C49.7986 8.61502 50.009 8.35425 50.1815 8.35425C50.3834 8.3653 50.5835 8.3976 50.7786 8.45062C51.3087 8.58232 51.8116 8.80552 52.2646 9.11011C52.4617 9.25939 52.5679 9.41056 52.5679 9.55984Z" fill="#2A81DD"/>
<path d="M58.2219 9.15723H58.2541C58.2619 9.14751 58.2717 9.1396 58.2828 9.13405C58.2939 9.1285 58.3061 9.12545 58.3186 9.12511C58.3011 9.1234 58.2835 9.12538 58.2668 9.13091C58.2502 9.13645 58.2349 9.14541 58.2219 9.15723Z" fill="#2A81DD"/>
<path d="M66.5466 23.4487C66.4628 23.3558 66.3715 23.2698 66.2737 23.1917C66.1853 23.1242 66.0936 23.0611 65.9988 23.0027C65.9323 22.9714 65.8763 22.9215 65.8377 22.8591C65.6232 22.4893 65.4702 22.0872 65.3847 21.6686C65.2767 21.1962 65.1952 20.7786 65.1269 20.412C64.9988 19.5858 64.9178 18.753 64.8843 17.9177C64.8521 17.0938 64.8275 16.2605 64.8199 15.4233C64.8123 14.5862 64.7877 13.7491 64.7554 12.912C64.7232 12.0749 64.6512 11.251 64.545 10.4347V10.4989L64.5128 10.3704V10.3931L64.3517 9.94148L64.4484 10.07C64.2751 9.76876 64.0246 9.51896 63.7224 9.34624C63.5448 9.21351 63.3384 9.12404 63.1199 9.085C62.9014 9.04595 62.6767 9.05841 62.4639 9.12137C62.3217 9.1535 62.2743 9.1894 62.3179 9.23475L62.0601 9.52387L61.9312 9.84511H61.6014C61.3511 9.72672 61.0849 9.64524 60.811 9.60323C60.5394 9.55531 60.2643 9.52877 59.9884 9.52387H59.761L59.6965 9.55599C58.6912 9.55351 57.7138 9.88607 56.9197 10.5008C56.0642 11.1525 55.3379 11.9574 54.7779 12.8742C54.1843 13.8216 53.7227 14.8451 53.4056 15.9165C53.1025 16.8701 52.9391 17.8623 52.9204 18.8625C52.9161 19.4704 53.0544 20.0709 53.3241 20.6161C53.583 21.1527 53.9449 21.6336 54.3893 22.0314C55.3098 22.8484 56.4986 23.3008 57.731 23.3032H57.9205C58.0267 23.3032 58.0835 23.2918 58.0835 23.271H57.9527C58.1423 23.2276 58.2769 23.1954 58.3413 23.1747C58.4654 23.1234 58.5841 23.0601 58.6958 22.9857L58.6635 23.0178C58.9422 22.9328 59.2208 22.6682 59.5032 22.2298C59.8055 21.7495 60.0753 21.2495 60.3107 20.7332C60.5601 20.1921 60.7809 19.6383 60.9722 19.0741C61.1617 18.528 61.2868 18.1047 61.3759 17.8043C61.4612 18.5318 61.5654 19.2688 61.7152 20.0076C61.8396 20.7128 62.0798 21.3927 62.426 22.0201C62.7524 22.615 63.2237 23.1186 63.7963 23.4846C64.3782 23.8625 65.1402 24.0515 66.0898 24.0515C66.2176 24.0491 66.3448 24.0326 66.4689 24.0023C66.5275 23.9957 66.5815 23.9674 66.6201 23.9229C66.6588 23.8784 66.6792 23.8211 66.6774 23.7623C66.676 23.6449 66.6292 23.5325 66.5466 23.4487ZM60.5267 12.5851C60.3846 13.1199 60.2197 13.7434 60.0263 14.4521C59.833 15.1607 59.6131 15.9052 59.38 16.6894C59.1583 17.4263 58.8996 18.1515 58.6048 18.8625C58.3616 19.4547 58.0586 20.0207 57.7007 20.5518C57.3784 21.0148 57.0429 21.2888 56.6999 21.3719C56.5422 20.9058 56.466 20.4163 56.4743 19.9245C56.4959 19.1753 56.6236 18.4329 56.8534 17.7193C57.1052 16.8545 57.4345 16.014 57.8371 15.2079C58.2294 14.4111 58.6944 13.652 59.2265 12.9403C59.6506 12.3368 60.2009 11.832 60.8395 11.4608C60.7675 11.6724 60.6632 12.0503 60.5267 12.5851Z" fill="#2A81DD"/>
<path d="M12.7563 18.2898C12.9845 18.8977 13.253 19.4898 13.5599 20.0623C13.8083 20.5375 14.1187 20.9778 14.483 21.3718C15.3225 22.3376 16.2773 23.1975 17.3262 23.9323C19.4559 25.4278 21.8058 26.5842 24.2919 27.3601C26.8111 28.1615 29.4042 28.7104 32.0328 28.9984C34.6878 29.2721 37.3574 29.3794 40.0258 29.3196C45.3842 29.1628 50.7502 28.4693 56.0574 27.43L58.0476 27.0407L60.0283 26.591C61.3551 26.2905 62.6705 25.9977 63.9803 25.6462L65.9458 25.1322C66.6035 24.9678 67.2575 24.7902 67.9095 24.5936L69.8656 24.0268L70.8436 23.7433L71.3326 23.6016L71.5772 23.5298L71.6985 23.4939C71.7515 23.5222 71.7402 23.3276 71.9051 23.7546L73.2072 28.3238C73.2887 28.7717 73.194 28.5997 73.1636 28.6507L73.0366 28.6809L72.7826 28.7452L72.2728 28.8699L71.2549 29.1231L69.2211 29.6258C68.5464 29.7996 67.864 29.9546 67.1779 30.1001L65.1289 30.546C63.7661 30.8597 62.3862 31.1129 61.0082 31.3661L58.9479 31.746L56.8629 32.0672C51.3169 32.91 45.6913 33.4485 40.0239 33.3295C37.1799 33.2609 34.3431 33.0129 31.5305 32.5868C28.6903 32.1392 25.9026 31.4073 23.2096 30.4024C20.4755 29.3793 17.9177 27.9386 15.6278 26.1318C14.4839 25.2018 13.4408 24.1549 12.5156 23.0082C12.0503 22.4268 11.6254 21.8144 11.2437 21.1753C11.0542 20.8559 10.8646 20.5215 10.7035 20.1832C10.6239 20.0056 10.5405 19.8355 10.4647 19.6541C10.3889 19.4727 10.3206 19.3102 10.2372 19.0513L12.7563 18.2898Z" fill="#2A81DD"/>
</g>
<defs>
<clipPath id="clip0_468_2563">
<rect width="73.2394" height="40" fill="white"/>
</clipPath>
</defs>
</svg>
