<svg width="192" height="64" viewBox="0 0 192 64" fill="none" xmlns="http://www.w3.org/2000/svg">
<rect width="192" height="64" rx="8" fill="white"/>
<path d="M74.1695 38.6815H80.8801C80.9183 38.8392 80.9502 39.0297 80.9757 39.2531C81.0012 39.4765 81.0139 39.6999 81.0139 39.9232C81.0139 40.8299 80.8801 41.684 80.6124 42.4855C80.3448 43.287 79.9242 44.0031 79.3506 44.6338C78.7388 45.3039 78.0059 45.823 77.152 46.1909C76.298 46.5588 75.323 46.7427 74.2268 46.7427C73.2327 46.7427 72.2958 46.5588 71.4164 46.1909C70.5369 45.823 69.7722 45.3105 69.1222 44.6535C68.4721 43.9965 67.9559 43.2213 67.5736 42.3278C67.1912 41.4212 67 40.4357 67 39.3714C67 38.3071 67.1912 37.3281 67.5736 36.4346C67.9559 35.528 68.4721 34.7462 69.1222 34.0892C69.7722 33.4322 70.5369 32.9198 71.4164 32.5519C72.2958 32.184 73.2327 32 74.2268 32C75.3357 32 76.3235 32.1971 77.1902 32.5913C78.0697 32.9855 78.8217 33.5308 79.4462 34.2272L77.6682 36.0207C77.2221 35.5346 76.725 35.1667 76.1769 34.917C75.6289 34.6542 74.9724 34.5228 74.2077 34.5228C73.5832 34.5228 72.9905 34.6411 72.4297 34.8776C71.8689 35.101 71.3782 35.4229 70.9575 35.8434C70.5369 36.2638 70.1992 36.7763 69.9443 37.3807C69.7021 37.972 69.581 38.6355 69.581 39.3714C69.581 40.1072 69.7021 40.7773 69.9443 41.3817C70.1992 41.973 70.5369 42.4789 70.9575 42.8994C71.3909 43.3198 71.888 43.6483 72.4488 43.8849C73.0096 44.1082 73.6087 44.2199 74.2459 44.2199C74.9724 44.2199 75.5842 44.1148 76.0813 43.9046C76.5912 43.6812 77.0245 43.3987 77.3814 43.0571C77.6363 42.8205 77.853 42.5249 78.0314 42.1701C78.2226 41.8022 78.3692 41.3949 78.4711 40.9481H74.1695V38.6815Z" fill="#2A81DD"/>
<path d="M87.1832 36.4544C87.9098 36.4544 88.5725 36.5858 89.1716 36.8485C89.7834 37.0982 90.306 37.453 90.7393 37.9129C91.1854 38.3596 91.5295 38.8983 91.7717 39.529C92.0266 40.1598 92.1541 40.8496 92.1541 41.5985C92.1541 42.3475 92.0266 43.0373 91.7717 43.668C91.5295 44.2988 91.1854 44.8441 90.7393 45.3039C90.306 45.7507 89.7834 46.1055 89.1716 46.3683C88.5725 46.6179 87.9098 46.7427 87.1832 46.7427C86.4567 46.7427 85.7876 46.6179 85.1758 46.3683C84.5767 46.1055 84.0542 45.7507 83.6081 45.3039C83.1747 44.8441 82.8306 44.2988 82.5757 43.668C82.3335 43.0373 82.2124 42.3475 82.2124 41.5985C82.2124 40.8496 82.3335 40.1598 82.5757 39.529C82.8306 38.8983 83.1747 38.3596 83.6081 37.9129C84.0542 37.453 84.5767 37.0982 85.1758 36.8485C85.7876 36.5858 86.4567 36.4544 87.1832 36.4544ZM87.1832 44.3579C87.5019 44.3579 87.8078 44.2988 88.1009 44.1805C88.4068 44.0491 88.6745 43.8651 88.9039 43.6286C89.1333 43.3921 89.3118 43.103 89.4392 42.7614C89.5794 42.4198 89.6495 42.0322 89.6495 41.5985C89.6495 41.1649 89.5794 40.7773 89.4392 40.4357C89.3118 40.0941 89.1333 39.805 88.9039 39.5685C88.6745 39.332 88.4068 39.1546 88.1009 39.0363C87.8078 38.9049 87.5019 38.8392 87.1832 38.8392C86.8519 38.8392 86.5396 38.9049 86.2464 39.0363C85.9533 39.1546 85.692 39.332 85.4626 39.5685C85.2332 39.805 85.0483 40.0941 84.9081 40.4357C84.7807 40.7773 84.717 41.1649 84.717 41.5985C84.717 42.0322 84.7807 42.4198 84.9081 42.7614C85.0483 43.103 85.2332 43.3921 85.4626 43.6286C85.692 43.8651 85.9533 44.0491 86.2464 44.1805C86.5396 44.2988 86.8519 44.3579 87.1832 44.3579Z" fill="#2A81DD"/>
<path d="M98.1988 36.4544C98.9253 36.4544 99.5881 36.5858 100.187 36.8485C100.799 37.0982 101.322 37.453 101.755 37.9129C102.201 38.3596 102.545 38.8983 102.787 39.529C103.042 40.1598 103.17 40.8496 103.17 41.5985C103.17 42.3475 103.042 43.0373 102.787 43.668C102.545 44.2988 102.201 44.8441 101.755 45.3039C101.322 45.7507 100.799 46.1055 100.187 46.3683C99.5881 46.6179 98.9253 46.7427 98.1988 46.7427C97.4723 46.7427 96.8032 46.6179 96.1914 46.3683C95.5923 46.1055 95.0698 45.7507 94.6237 45.3039C94.1903 44.8441 93.8462 44.2988 93.5913 43.668C93.3491 43.0373 93.228 42.3475 93.228 41.5985C93.228 40.8496 93.3491 40.1598 93.5913 39.529C93.8462 38.8983 94.1903 38.3596 94.6237 37.9129C95.0698 37.453 95.5923 37.0982 96.1914 36.8485C96.8032 36.5858 97.4723 36.4544 98.1988 36.4544ZM98.1988 44.3579C98.5175 44.3579 98.8234 44.2988 99.1165 44.1805C99.4224 44.0491 99.6901 43.8651 99.9195 43.6286C100.149 43.3921 100.327 43.103 100.455 42.7614C100.595 42.4198 100.665 42.0322 100.665 41.5985C100.665 41.1649 100.595 40.7773 100.455 40.4357C100.327 40.0941 100.149 39.805 99.9195 39.5685C99.6901 39.332 99.4224 39.1546 99.1165 39.0363C98.8234 38.9049 98.5175 38.8392 98.1988 38.8392C97.8674 38.8392 97.5552 38.9049 97.262 39.0363C96.9689 39.1546 96.7076 39.332 96.4782 39.5685C96.2487 39.805 96.0639 40.0941 95.9237 40.4357C95.7963 40.7773 95.7325 41.1649 95.7325 41.5985C95.7325 42.0322 95.7963 42.4198 95.9237 42.7614C96.0639 43.103 96.2487 43.3921 96.4782 43.6286C96.7076 43.8651 96.9689 44.0491 97.262 44.1805C97.5552 44.2988 97.8674 44.3579 98.1988 44.3579Z" fill="#2A81DD"/>
<path d="M109.1 51C108.437 51 107.844 50.908 107.322 50.7241C106.812 50.5533 106.366 50.3233 105.983 50.0342C105.601 49.7583 105.282 49.4495 105.027 49.1079C104.773 48.7663 104.588 48.4246 104.473 48.083L106.863 47.0975C107.041 47.61 107.334 48.0042 107.742 48.2801C108.15 48.5692 108.603 48.7137 109.1 48.7137C109.89 48.7137 110.514 48.4575 110.973 47.945C111.432 47.4457 111.662 46.7427 111.662 45.8361V45.166H111.509C111.216 45.5864 110.827 45.9215 110.342 46.1712C109.871 46.4077 109.31 46.5259 108.66 46.5259C108.099 46.5259 107.551 46.4077 107.016 46.1712C106.493 45.9346 106.028 45.5996 105.62 45.166C105.212 44.7192 104.881 44.1871 104.626 43.5695C104.371 42.9519 104.244 42.2621 104.244 41.5C104.244 40.7379 104.371 40.0481 104.626 39.4305C104.881 38.7998 105.212 38.2676 105.62 37.834C106.028 37.3873 106.493 37.0456 107.016 36.8091C107.551 36.5726 108.099 36.4544 108.66 36.4544C109.31 36.4544 109.871 36.5792 110.342 36.8288C110.827 37.0654 111.216 37.3938 111.509 37.8143H111.662V36.7697H114.051V45.7376C114.051 46.5522 113.93 47.2815 113.688 47.9253C113.446 48.5823 113.108 49.1342 112.675 49.5809C112.242 50.0408 111.719 50.389 111.107 50.6255C110.508 50.8752 109.839 51 109.1 51ZM109.195 44.2002C109.501 44.2002 109.801 44.1411 110.094 44.0228C110.4 43.9046 110.667 43.7337 110.897 43.5104C111.126 43.2739 111.311 42.9914 111.451 42.6629C111.591 42.3212 111.662 41.9336 111.662 41.5C111.662 41.0664 111.591 40.6788 111.451 40.3371C111.311 39.9955 111.126 39.713 110.897 39.4896C110.667 39.2531 110.4 39.0757 110.094 38.9575C109.801 38.8392 109.501 38.7801 109.195 38.7801C108.889 38.7801 108.59 38.8392 108.297 38.9575C108.004 39.0757 107.742 39.2531 107.513 39.4896C107.283 39.7261 107.099 40.0152 106.958 40.3568C106.818 40.6853 106.748 41.0664 106.748 41.5C106.748 41.9336 106.818 42.3212 106.958 42.6629C107.099 42.9914 107.283 43.2739 107.513 43.5104C107.742 43.7337 108.004 43.9046 108.297 44.0228C108.59 44.1411 108.889 44.2002 109.195 44.2002Z" fill="#2A81DD"/>
<path d="M116.187 46.4274V32.3154H118.691V46.4274H116.187Z" fill="#2A81DD"/>
<path d="M129.613 44.1017C129.18 44.89 128.594 45.5273 127.854 46.0135C127.128 46.4997 126.236 46.7427 125.178 46.7427C124.464 46.7427 123.801 46.6179 123.189 46.3683C122.59 46.1055 122.068 45.7441 121.622 45.2842C121.176 44.8243 120.825 44.2856 120.57 43.668C120.328 43.0373 120.207 42.3475 120.207 41.5985C120.207 40.9021 120.328 40.2452 120.57 39.6276C120.812 38.9969 121.15 38.4516 121.583 37.9917C122.017 37.5187 122.527 37.1442 123.113 36.8683C123.712 36.5923 124.368 36.4544 125.082 36.4544C125.834 36.4544 126.503 36.5858 127.09 36.8485C127.676 37.0982 128.167 37.453 128.562 37.9129C128.957 38.3596 129.256 38.8918 129.46 39.5093C129.664 40.1269 129.766 40.797 129.766 41.5197C129.766 41.6117 129.766 41.6905 129.766 41.7562C129.753 41.8351 129.747 41.9073 129.747 41.973C129.734 42.0387 129.728 42.111 129.728 42.1898H122.673C122.724 42.584 122.826 42.9257 122.979 43.2147C123.145 43.4907 123.342 43.7272 123.572 43.9243C123.814 44.1082 124.075 44.2462 124.356 44.3382C124.636 44.417 124.923 44.4564 125.216 44.4564C125.789 44.4564 126.261 44.325 126.631 44.0622C127.013 43.7863 127.313 43.4447 127.529 43.0373L129.613 44.1017ZM127.338 40.3568C127.325 40.186 127.268 39.9955 127.166 39.7853C127.077 39.575 126.937 39.3779 126.745 39.194C126.567 39.01 126.338 38.8589 126.057 38.7407C125.789 38.6224 125.464 38.5633 125.082 38.5633C124.547 38.5633 124.075 38.721 123.667 39.0363C123.259 39.3517 122.973 39.7918 122.807 40.3568H127.338Z" fill="#2A81DD"/>
<path d="M135.872 46.4274V32.3154H140.69C141.34 32.3154 141.946 32.427 142.507 32.6504C143.08 32.8607 143.577 33.1629 143.998 33.5571C144.418 33.9512 144.75 34.4243 144.992 34.9761C145.234 35.5149 145.355 36.1127 145.355 36.7697C145.355 37.4398 145.234 38.0508 144.992 38.6027C144.75 39.1414 144.418 39.6079 143.998 40.0021C143.577 40.3963 143.08 40.705 142.507 40.9284C141.946 41.1387 141.34 41.2438 140.69 41.2438H138.453V46.4274H135.872ZM140.729 38.721C141.404 38.721 141.914 38.5239 142.258 38.1297C142.602 37.7355 142.774 37.2822 142.774 36.7697C142.774 36.5201 142.73 36.277 142.64 36.0405C142.564 35.8039 142.436 35.6003 142.258 35.4295C142.092 35.2455 141.882 35.101 141.627 34.9959C141.372 34.8907 141.073 34.8382 140.729 34.8382H138.453V38.721H140.729Z" fill="#2A81DD"/>
<path d="M146.974 46.4274V32.3154H149.479V46.4274H146.974Z" fill="#2A81DD"/>
<path d="M157.304 45.4025H157.151C156.858 45.7704 156.501 46.0858 156.08 46.3485C155.672 46.6113 155.143 46.7427 154.493 46.7427C154.009 46.7427 153.55 46.6573 153.117 46.4865C152.696 46.3288 152.326 46.1055 152.008 45.8164C151.689 45.5273 151.441 45.1791 151.262 44.7718C151.084 44.3645 150.994 43.9177 150.994 43.4315C150.994 42.9322 151.09 42.4855 151.281 42.0913C151.472 41.684 151.74 41.3358 152.084 41.0467C152.428 40.7576 152.83 40.5408 153.289 40.3963C153.76 40.2386 154.27 40.1598 154.818 40.1598C155.43 40.1598 155.933 40.2123 156.329 40.3174C156.724 40.4094 157.049 40.508 157.304 40.6131V40.3174C157.304 39.805 157.106 39.3845 156.711 39.056C156.316 38.7144 155.825 38.5436 155.239 38.5436C154.372 38.5436 153.639 38.918 153.04 39.667L151.224 38.3859C152.218 37.0982 153.576 36.4544 155.296 36.4544C156.749 36.4544 157.858 36.8091 158.623 37.5187C159.388 38.2151 159.77 39.2531 159.77 40.6328V46.4274H157.304V45.4025ZM157.304 42.5052C157.01 42.3607 156.705 42.249 156.386 42.1701C156.08 42.0781 155.742 42.0322 155.373 42.0322C154.774 42.0322 154.308 42.1701 153.977 42.4461C153.658 42.7089 153.499 43.0373 153.499 43.4315C153.499 43.8257 153.652 44.1411 153.958 44.3776C154.277 44.6141 154.64 44.7324 155.048 44.7324C155.379 44.7324 155.685 44.6732 155.965 44.555C156.246 44.4236 156.482 44.2593 156.673 44.0622C156.877 43.852 157.03 43.6155 157.132 43.3527C157.246 43.0768 157.304 42.7943 157.304 42.5052Z" fill="#2A81DD"/>
<path d="M164.519 45.9544L160.58 36.7697H163.429L165.8 42.6234H165.934L168.209 36.7697H171L165.131 50.6846H162.435L164.519 45.9544Z" fill="#2A81DD"/>
<path d="M67.4414 15.3945V23.3689H70.555C71.8094 23.3689 72.4814 23.1449 73.1422 22.4841C74.0046 21.6217 74.2622 20.4345 74.2622 19.2473C74.2622 17.9705 73.8478 16.8953 73.0862 16.2121C72.3246 15.5289 71.4622 15.3945 70.4766 15.3945H67.4414ZM68.8302 16.5817H70.387C72.1342 16.5817 72.8622 17.6793 72.8622 19.3145C72.8622 20.9497 72.347 22.1929 70.4766 22.1929H68.8302V16.5817Z" fill="#2A81DD"/>
<path d="M78.033 17.4217C76.241 17.4217 75.0874 18.6201 75.0874 20.4793C75.0874 22.3609 76.2298 23.5481 78.033 23.5481C79.8026 23.5481 80.9226 22.3609 80.9226 20.4793C80.9226 18.6089 79.8026 17.4217 78.033 17.4217ZM78.0106 18.4297C79.0186 18.4297 79.6346 19.2025 79.6346 20.4681C79.6346 21.7673 79.0298 22.5513 78.0218 22.5513C76.9914 22.5513 76.3754 21.7785 76.3754 20.4793C76.3754 19.2137 77.0026 18.4297 78.0106 18.4297Z" fill="#2A81DD"/>
<path d="M81.4577 17.5897L83.2497 23.3689H84.5937L85.6689 19.0793L86.7553 23.3689H88.0657L89.8913 17.5897H88.5921L87.3937 21.9241L86.3297 17.5897H85.0417L83.9553 21.9241L82.8129 17.5897H81.4577Z" fill="#2A81DD"/>
<path d="M91.9333 17.5897H90.7237V23.3689H92.0005V20.2553C92.0005 18.9225 92.6389 18.4969 93.4117 18.4969C94.4309 18.4969 94.5317 19.2137 94.5317 20.0089V23.3689H95.8085V19.5161C95.8085 18.2057 95.1813 17.4329 93.8485 17.4329C92.9861 17.4329 92.4149 17.7465 91.9333 18.4409V17.5897Z" fill="#2A81DD"/>
<path d="M98.4541 15.3945H97.1885V23.3689H98.4541V15.3945Z" fill="#2A81DD"/>
<path d="M102.522 17.4217C100.73 17.4217 99.5765 18.6201 99.5765 20.4793C99.5765 22.3609 100.719 23.5481 102.522 23.5481C104.292 23.5481 105.412 22.3609 105.412 20.4793C105.412 18.6089 104.292 17.4217 102.522 17.4217ZM102.5 18.4297C103.508 18.4297 104.124 19.2025 104.124 20.4681C104.124 21.7673 103.519 22.5513 102.511 22.5513C101.48 22.5513 100.864 21.7785 100.864 20.4793C100.864 19.2137 101.492 18.4297 102.5 18.4297Z" fill="#2A81DD"/>
<path d="M106.428 19.3705H107.638C107.739 18.6201 108.097 18.3401 108.926 18.3401C109.732 18.3401 110.113 18.6201 110.113 19.2137C110.113 19.4265 110.091 19.5609 110.035 19.6281C109.912 19.7961 109.654 19.8521 108.769 19.9641C107.616 20.1097 106.182 20.2553 106.182 21.7897C106.182 22.8537 106.932 23.5145 108.131 23.5145C108.892 23.5145 109.632 23.3241 110.158 22.8201C110.248 23.3241 110.606 23.5145 111.099 23.5145C111.345 23.5145 111.524 23.4921 111.928 23.3913V22.4953C111.771 22.5177 111.726 22.5177 111.636 22.5177C111.401 22.5177 111.334 22.4281 111.334 22.0921V19.1577C111.334 17.9145 110.326 17.4105 108.96 17.4105C107.548 17.4105 106.574 17.9481 106.428 19.3705ZM110.102 20.4681V21.1513C110.102 21.4985 110.113 21.8793 109.844 22.1481C109.553 22.4393 109.06 22.6073 108.534 22.6073C107.873 22.6073 107.492 22.2937 107.492 21.7449C107.492 20.9833 108.164 20.8713 108.758 20.7817C109.217 20.7145 109.688 20.7033 110.102 20.4681Z" fill="#2A81DD"/>
<path d="M118.185 15.3945H116.93V18.3401C116.527 17.7465 115.911 17.4329 115.093 17.4329C113.492 17.4329 112.473 18.6089 112.473 20.4681C112.473 22.3385 113.503 23.5257 115.138 23.5257C116.001 23.5257 116.628 23.2009 116.986 22.5737V23.3689H118.185V15.3945ZM115.329 18.4633C116.359 18.4633 116.964 19.2025 116.964 20.4681C116.964 21.7449 116.37 22.4953 115.373 22.4953C114.377 22.4953 113.761 21.7113 113.761 20.4457C113.761 19.2137 114.365 18.4633 115.329 18.4633Z" fill="#2A81DD"/>
<path d="M123.893 17.5897H122.683V23.3689H123.96V20.2553C123.96 18.9225 124.598 18.4969 125.371 18.4969C126.39 18.4969 126.491 19.2137 126.491 20.0089V23.3689H127.768V19.5161C127.768 18.2057 127.141 17.4329 125.808 17.4329C124.945 17.4329 124.374 17.7465 123.893 18.4409V17.5897Z" fill="#2A81DD"/>
<path d="M131.78 17.4217C129.988 17.4217 128.834 18.6201 128.834 20.4793C128.834 22.3609 129.977 23.5481 131.78 23.5481C133.549 23.5481 134.669 22.3609 134.669 20.4793C134.669 18.6089 133.549 17.4217 131.78 17.4217ZM131.757 18.4297C132.765 18.4297 133.381 19.2025 133.381 20.4681C133.381 21.7673 132.777 22.5513 131.769 22.5513C130.738 22.5513 130.122 21.7785 130.122 20.4793C130.122 19.2137 130.749 18.4297 131.757 18.4297Z" fill="#2A81DD"/>
<path d="M135.205 17.5897L136.997 23.3689H138.341L139.416 19.0793L140.502 23.3689H141.813L143.638 17.5897H142.339L141.141 21.9241L140.077 17.5897H138.789L137.702 21.9241L136.56 17.5897H135.205Z" fill="#2A81DD"/>
<path d="M29.5322 15.4303C28.2334 14.69 26.7085 14.7072 25.418 15.441L40.5429 29.8286L45.624 24.5891L29.5322 15.4303Z" fill="#2A81DD"/>
<path d="M23.9052 16.9102C23.5358 17.5327 23.3242 18.2452 23.3242 19.0004V44.9857C23.3242 45.7174 23.5172 46.4148 23.8657 47.0246L39.0758 31.3405L23.9052 16.9102Z" fill="#2A81DD"/>
<path d="M52.3593 28.4257L47.5126 25.668L42.0664 31.2818L48.7409 37.6294L52.3613 35.5692C53.6643 34.8247 54.4444 33.4897 54.4444 31.9964C54.4423 30.503 53.6643 29.1681 52.3593 28.4257Z" fill="#2A81DD"/>
<path d="M40.6031 32.793L25.3516 48.5198C26.0134 48.9092 26.7396 49.1146 27.4699 49.1146C28.1753 49.1146 28.8849 48.9306 29.5343 48.5605L46.8315 38.717L40.6031 32.793Z" fill="#2A81DD"/>
</svg>
