<svg width="186" height="56" viewBox="0 0 186 56" fill="none" xmlns="http://www.w3.org/2000/svg">
<rect width="186.001" height="56" rx="8" fill="#E8F2FE"/>
<path d="M68.6074 16.075C68.6074 17.0566 68.3119 17.8384 67.7199 18.4216C67.0476 19.115 66.1713 19.4619 65.0941 19.4619C64.0625 19.4619 63.1853 19.1104 62.4641 18.4064C61.7414 17.7029 61.3809 16.8306 61.3809 15.7898C61.3809 14.7485 61.7414 13.8766 62.4641 13.1727C63.1853 12.4692 64.0625 12.1172 65.0941 12.1172C65.606 12.1172 66.096 12.2156 66.5613 12.412C67.0266 12.6088 67.3999 12.8701 67.6791 13.1974L67.0508 13.8157C66.5777 13.2596 65.9262 12.9818 65.0941 12.9818C64.3417 12.9818 63.6912 13.2418 63.1421 13.7621C62.5929 14.2831 62.3185 14.9586 62.3185 15.7898C62.3185 16.621 62.5929 17.2965 63.1421 17.8174C63.6912 18.3378 64.3417 18.5978 65.0941 18.5978C65.8922 18.5978 66.5576 18.3364 67.0904 17.8129C67.4362 17.4718 67.6362 16.9977 67.6897 16.3889H65.0941V15.5444H68.5576C68.5911 15.728 68.6074 15.9043 68.6074 16.075Z" fill="black"/>
<path d="M68.6074 16.075H68.4883C68.4873 17.0343 68.2025 17.7794 67.6357 18.3387L67.6344 18.3397L67.6339 18.3406C66.9829 19.0101 66.1462 19.3434 65.0941 19.3448C64.09 19.3434 63.2495 19.0065 62.5478 18.3236C61.8476 17.6393 61.5013 16.804 61.5 15.7898C61.5013 14.7751 61.8476 13.9403 62.5478 13.2564C63.2495 12.5731 64.09 12.2358 65.0941 12.2344C65.5906 12.2344 66.0634 12.3296 66.5143 12.5196C66.9656 12.7109 67.3222 12.9616 67.5878 13.273L67.6791 13.1974L67.5948 13.1146L66.9666 13.7333L67.0508 13.8157L67.1425 13.7407C66.6473 13.1571 65.9522 12.8629 65.0941 12.8646C64.3138 12.8637 63.6274 13.1379 63.0597 13.678C62.4864 14.2199 62.1984 14.9334 62.1993 15.7898C62.1984 16.6462 62.4864 17.3597 63.0597 17.9016C63.6274 18.4417 64.3138 18.7159 65.0941 18.715C65.9186 18.7164 66.6214 18.4413 67.1746 17.8957C67.5441 17.5313 67.7535 17.0265 67.8084 16.399L67.8195 16.2717H65.2132V15.6616H68.5576V15.5444L68.4403 15.5651C68.4729 15.7427 68.4883 15.9115 68.4883 16.075H68.6074H68.7265C68.7265 15.8969 68.7097 15.7139 68.6748 15.5235L68.6572 15.4273H64.9749V16.3889V16.5061H67.6897V16.3889L67.571 16.3788C67.5185 16.9684 67.3276 17.4124 67.0061 17.73C66.4943 18.2316 65.8661 18.4792 65.0941 18.4806C64.3695 18.4797 63.7549 18.2343 63.2249 17.7332C62.7 17.2338 62.4389 16.5963 62.4376 15.7898C62.4389 14.9833 62.7 14.3458 63.2249 13.8464C63.7549 13.3453 64.3695 13.0999 65.0941 13.099C65.8996 13.1008 66.5078 13.3626 66.9597 13.8913L67.0434 13.9892L67.7633 13.2802L67.8405 13.2043L67.7702 13.1223C67.4775 12.7791 67.0876 12.5067 66.6082 12.3044C66.1281 12.1016 65.6213 12 65.0941 12C64.035 11.9991 63.1211 12.3652 62.3798 13.0898C61.6358 13.813 61.2608 14.722 61.2617 15.7898C61.2608 16.8571 61.6358 17.7666 62.3803 18.4902C63.1211 19.2143 64.035 19.58 65.0941 19.5791C66.1969 19.58 67.1118 19.2197 67.806 18.5025L67.7199 18.4216L67.8041 18.5044C68.4212 17.8979 68.7274 17.0787 68.7265 16.075H68.6074Z" fill="black"/>
<path d="M74.0983 13.1383H70.8434V15.3674H73.7787V16.2122H70.8434V18.4413H74.0983V19.3049H69.9258V12.2747H74.0983V13.1383Z" fill="black"/>
<path d="M74.0983 13.1384V13.0212H70.7243V15.4846H73.6596V16.0947L70.7243 16.0951V18.5585H73.9792V19.1878H70.0449V12.3919H73.9792V13.1384H74.0983V13.0212V13.1384H74.2175V12.2747V12.1575H69.8066V19.4221H74.2175V18.4413V18.3241H70.9625V16.3294H73.8979V15.3674V15.2503H70.9625V13.2555H74.2175V13.1384H74.0983Z" fill="black"/>
<path d="M77.97 19.3049H77.051V13.1383H75.0547V12.2747H79.9663V13.1383H77.97V19.3049Z" fill="black"/>
<path d="M77.9719 19.3049V19.1878H77.172V13.0212H75.1757V12.3919H79.8491V13.0212H77.8528V19.3049H77.9719V19.1878V19.3049H78.0911V13.2555H80.0873V12.2747V12.1575H74.9375V13.1384V13.2555H76.9338V19.4221H77.9719H78.0911V19.3049H77.9719Z" fill="black"/>
<path d="M83.5215 19.3049V12.2747H84.4395V19.3049H83.5215Z" fill="black"/>
<path d="M83.5195 19.3049H83.6386V12.3919H84.3185V19.1878H83.5195V19.3049H83.6386H83.5195V19.4221H84.4376H84.5567V12.1575H83.5195H83.4004V19.4221H83.5195V19.3049Z" fill="black"/>
<path d="M88.5129 19.3049H87.5938V13.1383H85.5977V12.2747H90.5092V13.1383H88.5129V19.3049Z" fill="black"/>
<path d="M88.5128 19.3049V19.1878H87.7129V13.0212H85.7168V12.3919H90.39V13.0212H88.3937V19.3049H88.5128V19.1878V19.3049H88.632V13.2555H90.6282V12.2747V12.1575H85.4785V13.1384V13.2555H87.4747V19.4221H88.5128H88.632V19.3049H88.5128Z" fill="black"/>
<path d="M95.2447 17.8078C95.7737 18.3346 96.421 18.5978 97.1865 18.5978C97.952 18.5978 98.5997 18.3346 99.1279 17.8078C99.6574 17.281 99.9227 16.6076 99.9227 15.7898C99.9227 14.9719 99.6574 14.2986 99.1279 13.7718C98.5997 13.245 97.952 12.9818 97.1865 12.9818C96.421 12.9818 95.7737 13.245 95.2447 13.7718C94.7165 14.2986 94.4513 14.9719 94.4513 15.7898C94.4513 16.6076 94.7165 17.281 95.2447 17.8078ZM99.8072 18.3964C99.1045 19.1071 98.2306 19.4619 97.1865 19.4619C96.1413 19.4619 95.2679 19.1071 94.5667 18.3964C93.8635 17.6864 93.5137 16.8174 93.5137 15.7898C93.5137 14.7622 93.8635 13.893 94.5667 13.1832C95.2679 12.4723 96.1413 12.1172 97.1865 12.1172C98.2251 12.1172 99.0967 12.4742 99.8026 13.1878C100.508 13.9013 100.86 14.7686 100.86 15.7898C100.86 16.8174 100.508 17.6864 99.8072 18.3964Z" fill="black"/>
<path d="M95.2447 17.8078L95.16 17.8902C95.7086 18.4381 96.3931 18.7164 97.1865 18.715C97.9794 18.7164 98.6648 18.4381 99.2126 17.8902C99.7648 17.3418 100.043 16.6324 100.042 15.7898C100.043 14.9472 99.7648 14.2378 99.2126 13.6894C98.6648 13.1415 97.9794 12.8632 97.1865 12.8646C96.3931 12.8632 95.7086 13.1415 95.16 13.6894C94.609 14.2378 94.3307 14.9472 94.3322 15.7898C94.3307 16.6324 94.609 17.3418 95.16 17.8902L95.2447 17.8078L95.3294 17.7255C94.824 17.2196 94.5714 16.5834 94.5704 15.7898C94.5714 14.9962 94.824 14.36 95.3294 13.8541C95.8393 13.3484 96.4484 13.1004 97.1865 13.099C97.924 13.1004 98.5345 13.3484 99.0432 13.8541C99.5495 14.36 99.8021 14.9962 99.8031 15.7898C99.8021 16.5834 99.5495 17.2196 99.0432 17.7255C98.5345 18.2312 97.924 18.4792 97.1865 18.4806C96.4484 18.4792 95.8393 18.2312 95.3294 17.7255L95.2447 17.8078ZM99.8073 18.3964L99.7221 18.3149C99.039 19.0033 98.2037 19.3434 97.1865 19.3448C96.1688 19.3434 95.3335 19.0033 94.6518 18.3149L94.6486 18.3113L94.6518 18.3149C93.9701 17.6242 93.6337 16.7913 93.6328 15.7898C93.6337 14.7883 93.9701 13.9554 94.6518 13.2647C95.3335 12.5763 96.1688 12.2358 97.1865 12.2344C98.1972 12.2358 99.0306 12.5777 99.7174 13.2697C100.401 13.9636 100.74 14.7953 100.741 15.7898C100.74 16.7913 100.402 17.6242 99.7221 18.3149L99.8073 18.3964L99.8929 18.4778C100.615 17.7483 100.98 16.8434 100.979 15.7898C100.98 14.7422 100.614 13.8391 99.8881 13.1064C99.1623 12.3708 98.253 11.9987 97.1865 12C96.1144 11.9987 95.2024 12.369 94.4811 13.1018V13.1013C93.7575 13.8313 93.3936 14.7362 93.3945 15.7898C93.3936 16.8434 93.7575 17.7483 94.4811 18.4783L94.4843 18.4816L94.4811 18.4778C95.2024 19.2106 96.1144 19.58 97.1865 19.5791C98.2582 19.58 99.1702 19.2106 99.8929 18.4778L99.8073 18.3964Z" fill="black"/>
<path d="M102.15 19.3049V12.2747H103.268L106.742 17.7437H106.781L106.742 16.3889V12.2747H107.661V19.3049H106.702L103.068 13.5708H103.028L103.068 14.9261V19.3049H102.15Z" fill="black"/>
<path d="M102.148 19.3049H102.268V12.3919H103.2L106.674 17.8609H106.779H106.902L106.859 16.3872V12.3919H107.54V19.1878H106.766L103.132 13.4537H103.026H102.904L102.947 14.928V19.1878H102.148V19.3049H102.268H102.148V19.4221H103.066H103.185V14.9243L103.146 13.5677L103.026 13.5708V13.688H103.066V13.5708L102.965 13.6332L106.634 19.4221H107.659H107.778V12.1575H106.74H106.621V16.3903L106.66 17.7469L106.779 17.7438V17.6266H106.74V17.7438L106.841 17.6815L103.332 12.1575H102.148H102.029V19.4221H102.148V19.3049Z" fill="black"/>
<path d="M139.508 39.2239H141.731V24.5761H139.508V39.2239ZM159.529 29.8526L156.981 36.2031H156.905L154.26 29.8526H151.866L155.831 38.7286L153.57 43.6658H155.89L162.001 29.8526H159.529ZM146.923 37.5602C146.194 37.5602 145.179 37.2022 145.179 36.3162C145.179 35.1856 146.444 34.7522 147.535 34.7522C148.513 34.7522 148.972 34.9595 149.567 35.2424C149.394 36.599 148.206 37.5602 146.923 37.5602ZM147.191 29.5321C145.582 29.5321 143.915 30.2296 143.226 31.7749L145.198 32.585C145.62 31.7749 146.405 31.5108 147.229 31.5108C148.379 31.5108 149.547 32.1895 149.567 33.3956V33.5461C149.164 33.32 148.303 32.9809 147.248 32.9809C145.122 32.9809 142.956 34.1301 142.956 36.2786C142.956 38.2385 144.7 39.5012 146.654 39.5012C148.149 39.5012 148.972 38.8417 149.49 38.0692H149.567V39.1996H151.712V33.5836C151.712 30.9835 149.739 29.5321 147.191 29.5321ZM133.454 31.6357H130.292V26.6148H133.454C135.116 26.6148 136.059 27.9681 136.059 29.1252C136.059 30.2603 135.116 31.6357 133.454 31.6357ZM133.397 24.5761H128.071V39.2239H130.292V33.6743H133.397C135.86 33.6743 138.282 31.9199 138.282 29.1252C138.282 26.3305 135.86 24.5761 133.397 24.5761ZM104.353 37.5629C102.817 37.5629 101.532 36.2983 101.532 34.5613C101.532 32.8061 102.817 31.5223 104.353 31.5223C105.869 31.5223 107.059 32.8061 107.059 34.5613C107.059 36.2983 105.869 37.5629 104.353 37.5629ZM106.905 30.6728H106.828C106.33 30.0877 105.37 29.5592 104.161 29.5592C101.627 29.5592 99.3055 31.7487 99.3055 34.5613C99.3055 37.3551 101.627 39.526 104.161 39.526C105.37 39.526 106.33 38.9973 106.828 38.3936H106.905V39.1108C106.905 41.0177 105.869 42.0369 104.199 42.0369C102.837 42.0369 101.992 41.0739 101.647 40.2624L99.7085 41.0551C100.265 42.3765 101.743 44 104.199 44C106.809 44 109.016 42.4896 109.016 38.8088V29.8612H106.905V30.6728ZM110.552 39.2239H112.778V24.5757H110.552V39.2239ZM116.06 34.3915C116.002 32.4659 117.576 31.4846 118.708 31.4846C119.591 31.4846 120.339 31.9185 120.588 32.542L116.06 34.3915ZM122.968 32.7305C122.547 31.6165 121.26 29.5592 118.631 29.5592C116.021 29.5592 113.853 31.579 113.853 34.5426C113.853 37.3364 116.002 39.526 118.88 39.526C121.203 39.526 122.547 38.129 123.103 37.3175L121.376 36.1847C120.8 37.0155 120.013 37.5629 118.88 37.5629C117.748 37.5629 116.942 37.0531 116.424 36.0529L123.198 33.2967L122.968 32.7305ZM68.9954 31.0883V33.2024H74.1386C73.9851 34.3915 73.5821 35.2598 72.9679 35.8639C72.2196 36.6003 71.0489 37.4118 68.9954 37.4118C65.8287 37.4118 63.3532 34.9013 63.3532 31.7867C63.3532 28.6721 65.8287 26.1612 68.9954 26.1612C70.7035 26.1612 71.9507 26.8221 72.872 27.6716L74.3881 26.1804C73.1023 24.9721 71.3941 24.0471 68.9954 24.0471C64.658 24.0471 61.0117 27.5205 61.0117 31.7867C61.0117 36.0529 64.658 39.526 68.9954 39.526C71.3369 39.526 73.1024 38.7713 74.484 37.3551C75.9042 35.9582 76.3457 33.9951 76.3457 32.4097C76.3457 31.9185 76.3075 31.4659 76.2303 31.0883H68.9954ZM82.1931 37.5629C80.6574 37.5629 79.3331 36.317 79.3331 34.5426C79.3331 32.7493 80.6574 31.5223 82.1931 31.5223C83.7281 31.5223 85.0524 32.7493 85.0524 34.5426C85.0524 36.317 83.7281 37.5629 82.1931 37.5629ZM82.1931 29.5592C79.3908 29.5592 77.1069 31.6544 77.1069 34.5426C77.1069 37.4118 79.3908 39.526 82.1931 39.526C84.9948 39.526 87.2786 37.4118 87.2786 34.5426C87.2786 31.6544 84.9948 29.5592 82.1931 29.5592ZM93.2873 37.5629C91.7523 37.5629 90.4279 36.317 90.4279 34.5426C90.4279 32.7493 91.7523 31.5223 93.2873 31.5223C94.8225 31.5223 96.1468 32.7493 96.1468 34.5426C96.1468 36.317 94.8225 37.5629 93.2873 37.5629ZM93.2873 29.5592C90.4852 29.5592 88.2018 31.6544 88.2018 34.5426C88.2018 37.4118 90.4852 39.526 93.2873 39.526C96.0891 39.526 98.373 37.4118 98.373 34.5426C98.373 31.6544 96.0891 29.5592 93.2873 29.5592Z" fill="black"/>
<path d="M24.6398 42.0237L24.5513 41.9404C24.2047 41.5796 24 41.0194 24 40.294V40.4647V14.5512C24 14.5489 24 14.5471 24 14.5453C24 14.5475 24 14.5494 24 14.5517V14.7229C24 13.9374 24.2386 13.3457 24.6384 12.9909L39.3976 27.5078L24.6398 42.0237ZM24 14.5439C24 14.4793 24.0018 14.4166 24.0051 14.3549C24.0018 14.4161 24 14.4793 24 14.5439ZM24.0051 14.3521C24.0051 14.3512 24.0051 14.3503 24.0055 14.3494C24.0051 14.3503 24.0051 14.3512 24.0051 14.3521ZM24.0055 14.3439C24.0055 14.3434 24.0055 14.3429 24.0055 14.3424C24.0055 14.3429 24.0055 14.3434 24.0055 14.3439Z" fill="url(#paint0_linear_468_2183)"/>
<path d="M44.3155 32.52L44.4277 32.4573L50.2563 29.1999C50.812 28.8891 51.1824 28.5124 51.3672 28.1138C51.1829 28.5124 50.8124 28.8896 50.2563 29.2003L44.4277 32.4578L44.3155 32.52ZM44.3169 32.3484L39.3965 27.5078L44.3164 22.6681L50.2563 25.9873C51.0106 26.4089 51.4341 26.9522 51.5049 27.5073C51.5049 27.5078 51.5049 27.5087 51.5049 27.5096C51.4341 28.0634 51.0106 28.6072 50.2563 29.0287L44.3169 32.3484Z" fill="url(#paint1_linear_468_2183)"/>
<path d="M25.6937 42.5767C25.2814 42.5767 24.9216 42.4448 24.6411 42.1959L24.6416 42.1954C24.9221 42.4444 25.2823 42.5767 25.6946 42.5767C25.7303 42.5767 25.7667 42.5757 25.8035 42.574C25.7662 42.5757 25.7294 42.5767 25.6937 42.5767ZM25.6941 42.405C25.2818 42.4055 24.9221 42.2732 24.6416 42.0242V42.0238L39.3994 27.5079L44.3198 32.3485L27.0287 42.0119C26.5503 42.2787 26.097 42.405 25.6941 42.405ZM24.6374 42.1927C24.6113 42.1694 24.5857 42.1447 24.5605 42.119L24.6374 42.1927Z" fill="url(#paint2_linear_468_2183)"/>
<path d="M39.3979 27.5078L24.6387 12.991C24.9192 12.7424 25.2785 12.6106 25.6903 12.6106C26.0943 12.6106 26.5479 12.7374 27.0272 13.0047L44.3179 22.6681L39.3979 27.5078ZM44.4291 22.5588L27.0272 12.8336C26.5479 12.5662 26.0943 12.4394 25.6903 12.4394C25.6884 12.4394 25.6871 12.4394 25.6852 12.4394C25.6876 12.4394 25.6893 12.4394 25.6922 12.4394C26.0952 12.4394 26.5484 12.5657 27.0272 12.8331L44.4291 22.5588Z" fill="url(#paint3_linear_468_2183)"/>
<path d="M25.8012 42.574C26.1758 42.5529 26.5904 42.4261 27.0264 42.1831L44.3161 32.5201L27.0264 42.1831C26.5908 42.4266 26.1758 42.5529 25.8012 42.574ZM24.6388 42.1959L24.6351 42.1927C24.6364 42.1936 24.6379 42.1949 24.6388 42.1959ZM24.5583 42.119L24.5508 42.1117V42.1113C24.5536 42.114 24.5559 42.1167 24.5583 42.119Z" fill="white"/>
<path d="M44.3145 32.52L44.4269 32.4573L44.3145 32.52Z" fill="url(#paint4_linear_468_2183)"/>
<path d="M25.6943 42.5767C25.282 42.5767 24.9218 42.4444 24.6412 42.1954L24.6408 42.1959C24.6398 42.1949 24.6384 42.1936 24.6371 42.1927L24.5602 42.119C24.5579 42.1166 24.5556 42.114 24.5527 42.1113L24.6412 42.0242C24.9218 42.2732 25.2815 42.4055 25.6938 42.405C26.0967 42.405 26.55 42.2787 27.0284 42.0119L44.3195 32.3485L44.4303 32.4574L44.3181 32.5201L27.0284 42.1831C26.5924 42.4261 26.1777 42.5529 25.8032 42.574C25.7664 42.5757 25.73 42.5767 25.6943 42.5767Z" fill="url(#paint5_linear_468_2183)"/>
<path d="M24.5513 42.1118C24.2047 41.751 24 41.1909 24 40.4654V40.465C24 41.1909 24.2047 41.7506 24.5513 42.1113V42.1118Z" fill="white"/>
<path d="M24.5513 42.1113C24.2047 41.7506 24 41.1908 24 40.465V40.2942C24 41.0196 24.2047 41.5798 24.5513 41.9406L24.6398 42.0239L24.5513 42.1113Z" fill="url(#paint6_linear_468_2183)"/>
<path d="M24.5527 42.1113L24.6415 42.0239V42.0243L24.5527 42.1113Z" fill="url(#paint7_linear_468_2183)"/>
<path d="M51.3672 28.1138C51.459 27.916 51.5052 27.7128 51.5052 27.5095C51.5052 27.5092 51.5052 27.5087 51.5052 27.5087C51.5052 27.7123 51.459 27.9155 51.3672 28.1138Z" fill="white"/>
<path d="M44.4272 32.4573L44.3164 32.3483L50.2558 29.0286C51.0101 28.6072 51.4336 28.0634 51.5044 27.5095C51.5044 27.7128 51.4583 27.916 51.3666 28.1137C51.1819 28.5124 50.8115 28.8891 50.2558 29.1998L44.4272 32.4573Z" fill="url(#paint8_linear_468_2183)"/>
<path d="M51.5073 27.5078V27.5073C51.5069 26.8944 51.0904 26.2816 50.2588 25.8166L44.4302 22.5591H44.4297L44.4302 22.5588L50.2588 25.8161C51.0914 26.2812 51.5083 26.8949 51.5073 27.5078Z" fill="#404040"/>
<path d="M51.5048 27.5073C51.4341 26.9522 51.0106 26.4088 50.2563 25.9873L44.3164 22.6681L44.4272 22.5591H44.4277L50.2563 25.8166C51.0879 26.2816 51.5044 26.8944 51.5048 27.5073Z" fill="url(#paint9_linear_468_2183)"/>
<path d="M24 14.5454C24 14.5449 24 14.5445 24 14.544C24 14.5445 24 14.5449 24 14.5454ZM24.0051 14.355C24.0051 14.3541 24.0051 14.3531 24.0051 14.3522C24.0051 14.3531 24.0051 14.3541 24.0051 14.355ZM24.0055 14.3495C24.0055 14.3476 24.0055 14.3459 24.0055 14.344C24.0055 14.3459 24.0055 14.3476 24.0055 14.3495ZM24.0055 14.3426C24.0745 13.1389 24.7399 12.4436 25.6812 12.4395C25.2731 12.4418 24.9176 12.5737 24.6393 12.8203V12.8198L24.636 12.8231C24.6067 12.8491 24.5788 12.8767 24.5513 12.905C24.2386 13.2304 24.0413 13.7178 24.0055 14.3426Z" fill="#404040"/>
<path d="M24 14.7229V14.5517C24 14.5494 24 14.5475 24 14.5453C24 14.5448 24 14.5443 24 14.5439C24 14.4793 24.0018 14.4161 24.0051 14.3549C24.0051 14.3539 24.0051 14.353 24.0051 14.3521C24.0051 14.3512 24.0051 14.3503 24.0055 14.3494C24.0055 14.3475 24.0055 14.3457 24.0055 14.3439C24.0055 14.3434 24.0055 14.3429 24.0055 14.3424C24.0413 13.7177 24.2386 13.2303 24.5513 12.9049L24.6384 12.9909C24.2386 13.3457 24 13.9374 24 14.7229ZM24.636 12.823L24.6393 12.8197C24.6384 12.8211 24.637 12.822 24.636 12.823Z" fill="url(#paint10_linear_468_2183)"/>
<path d="M44.319 22.6682L27.0284 13.0048C26.549 12.7375 26.0954 12.6107 25.6914 12.6107C25.2796 12.6107 24.9204 12.7426 24.6398 12.9911L24.5527 12.9051C24.5803 12.8767 24.6081 12.8492 24.6374 12.8232C24.6384 12.8222 24.6398 12.8213 24.6408 12.8204C24.919 12.5737 25.2745 12.4419 25.6826 12.4396C25.6836 12.4396 25.6849 12.4396 25.6863 12.4396C25.6882 12.4396 25.6895 12.4396 25.6914 12.4396C26.0954 12.4396 26.549 12.5663 27.0284 12.8337L44.4303 22.5589L44.4298 22.5592L44.319 22.6682Z" fill="url(#paint11_linear_468_2183)"/>
<defs>
<linearGradient id="paint0_linear_468_2183" x1="38.0889" y1="14.2779" x2="18.4274" y2="34.2672" gradientUnits="userSpaceOnUse">
<stop stop-color="#00A0FF"/>
<stop offset="0.00657445" stop-color="#00A1FF"/>
<stop offset="0.2601" stop-color="#00BEFF"/>
<stop offset="0.5122" stop-color="#00D2FF"/>
<stop offset="0.7604" stop-color="#00DFFF"/>
<stop offset="1" stop-color="#00E3FF"/>
</linearGradient>
<linearGradient id="paint1_linear_468_2183" x1="52.4239" y1="27.5085" x2="23.5994" y2="27.5085" gradientUnits="userSpaceOnUse">
<stop stop-color="#FFE000"/>
<stop offset="0.4087" stop-color="#FFBD00"/>
<stop offset="0.7754" stop-color="#FFA500"/>
<stop offset="1" stop-color="#FF9C00"/>
</linearGradient>
<linearGradient id="paint2_linear_468_2183" x1="41.6968" y1="30.1973" x2="15.0344" y2="57.3043" gradientUnits="userSpaceOnUse">
<stop stop-color="#FF3A44"/>
<stop offset="1" stop-color="#C31162"/>
</linearGradient>
<linearGradient id="paint3_linear_468_2183" x1="20.8132" y1="4.27919" x2="32.7191" y2="16.3835" gradientUnits="userSpaceOnUse">
<stop stop-color="#32A071"/>
<stop offset="0.0685" stop-color="#2DA771"/>
<stop offset="0.4762" stop-color="#15CF74"/>
<stop offset="0.8009" stop-color="#06E775"/>
<stop offset="1" stop-color="#00F076"/>
</linearGradient>
<linearGradient id="paint4_linear_468_2183" x1="52.4418" y1="27.5088" x2="23.5501" y2="27.5088" gradientUnits="userSpaceOnUse">
<stop stop-color="#CCB300"/>
<stop offset="0.4087" stop-color="#CC9700"/>
<stop offset="0.7754" stop-color="#CC8400"/>
<stop offset="1" stop-color="#CC7D00"/>
</linearGradient>
<linearGradient id="paint5_linear_468_2183" x1="41.6965" y1="30.1973" x2="15.0341" y2="57.3043" gradientUnits="userSpaceOnUse">
<stop stop-color="#CC2E36"/>
<stop offset="1" stop-color="#9C0E4E"/>
</linearGradient>
<linearGradient id="paint6_linear_468_2183" x1="38.089" y1="14.2781" x2="18.4275" y2="34.2675" gradientUnits="userSpaceOnUse">
<stop stop-color="#008DE0"/>
<stop offset="0.00657445" stop-color="#008DE0"/>
<stop offset="0.2601" stop-color="#00A7E0"/>
<stop offset="0.5122" stop-color="#00B8E0"/>
<stop offset="0.7604" stop-color="#00C4E0"/>
<stop offset="1" stop-color="#00C7E0"/>
</linearGradient>
<linearGradient id="paint7_linear_468_2183" x1="41.7372" y1="30.1981" x2="15.0775" y2="57.3682" gradientUnits="userSpaceOnUse">
<stop stop-color="#E0333C"/>
<stop offset="1" stop-color="#AB0F56"/>
</linearGradient>
<linearGradient id="paint8_linear_468_2183" x1="52.4234" y1="27.5084" x2="23.5989" y2="27.5084" gradientUnits="userSpaceOnUse">
<stop stop-color="#E0C500"/>
<stop offset="0.4087" stop-color="#E0A600"/>
<stop offset="0.7754" stop-color="#E09100"/>
<stop offset="1" stop-color="#E08900"/>
</linearGradient>
<linearGradient id="paint9_linear_468_2183" x1="52.4239" y1="27.5085" x2="23.5994" y2="27.5085" gradientUnits="userSpaceOnUse">
<stop stop-color="#FFE840"/>
<stop offset="0.4087" stop-color="#FFCE40"/>
<stop offset="0.7754" stop-color="#FFBC40"/>
<stop offset="1" stop-color="#FFB540"/>
</linearGradient>
<linearGradient id="paint10_linear_468_2183" x1="38.0889" y1="14.2779" x2="18.4274" y2="34.2672" gradientUnits="userSpaceOnUse">
<stop stop-color="#40B8FF"/>
<stop offset="0.00657445" stop-color="#40B9FF"/>
<stop offset="0.2601" stop-color="#40CEFF"/>
<stop offset="0.5122" stop-color="#40DDFF"/>
<stop offset="0.7604" stop-color="#40E7FF"/>
<stop offset="1" stop-color="#40EAFF"/>
</linearGradient>
<linearGradient id="paint11_linear_468_2183" x1="20.8144" y1="4.27932" x2="32.7202" y2="16.3837" gradientUnits="userSpaceOnUse">
<stop stop-color="#65B895"/>
<stop offset="0.0685" stop-color="#62BD95"/>
<stop offset="0.4762" stop-color="#50DB97"/>
<stop offset="0.8009" stop-color="#44ED98"/>
<stop offset="1" stop-color="#40F498"/>
</linearGradient>
</defs>
</svg>
