<svg width="24" height="24" viewBox="0 0 24 24" fill="none" xmlns="http://www.w3.org/2000/svg">
<path d="M4.14546 11.4481C9.37675 9.00883 16.146 6.03492 17.0807 5.62322C19.5317 4.54597 20.2839 4.75222 19.9089 7.13833C19.6395 8.85335 18.8627 14.5307 18.243 18.0646C17.8755 20.1604 17.0508 20.4087 15.7546 19.502C15.1312 19.0657 11.9842 16.8597 11.3009 16.3417C10.6775 15.8697 9.81755 15.3017 10.896 14.1832C11.2799 13.785 13.7953 11.2387 15.7553 9.25712C16.012 8.99693 15.6895 8.56937 15.3931 8.778C12.7513 10.635 9.08861 13.2123 8.62236 13.5478C7.91812 14.0547 7.24157 14.2872 6.02767 13.9175C5.11014 13.6383 4.21431 13.3051 3.86556 13.1782C2.52219 12.6895 2.841 12.0565 4.14546 11.4481Z" fill="white"/>
</svg>
