<svg width="24" height="24" viewBox="0 0 24 24" fill="none" xmlns="http://www.w3.org/2000/svg">
<path fill-rule="evenodd" clip-rule="evenodd" d="M20.6079 4.57089C21.5502 4.8246 22.2932 5.56758 22.5469 6.50991C23.018 8.23147 22.9999 11.8196 22.9999 11.8196C22.9999 11.8196 22.9999 15.3895 22.5469 17.1111C22.2932 18.0534 21.5502 18.7964 20.6079 19.0501C18.8863 19.5031 12.0001 19.5031 12.0001 19.5031C12.0001 19.5031 5.13198 19.5031 3.3923 19.032C2.44998 18.7783 1.70699 18.0353 1.45329 17.0929C1.00024 15.3895 1.00024 11.8014 1.00024 11.8014C1.00024 11.8014 1.00024 8.23147 1.45329 6.50991C1.70699 5.56758 2.4681 4.80648 3.3923 4.55277C5.11386 4.09973 12.0001 4.09973 12.0001 4.09973C12.0001 4.09973 18.8863 4.09973 20.6079 4.57089ZM15.5342 11.6754L9.80777 14.9736V8.37727L15.5342 11.6754Z" fill="white"/>
</svg>
