<?xml version="1.0" standalone="no"?>
<!DOCTYPE svg PUBLIC "-//W3C//DTD SVG 20010904//EN"
 "http://www.w3.org/TR/2001/REC-SVG-20010904/DTD/svg10.dtd">
<svg version="1.0" xmlns="http://www.w3.org/2000/svg"
 width="700.000000pt" height="700.000000pt" viewBox="0 0 700.000000 700.000000"
 preserveAspectRatio="xMidYMid meet">
<metadata>
Created by potrace 1.14, written by Peter Selinger 2001-2017
</metadata>
<g transform="translate(0.000000,700.000000) scale(0.100000,-0.100000)"
fill="#000000" stroke="none">
<path d="M1539 6996 c-2 -2 -33 -7 -69 -10 -105 -11 -207 -35 -335 -78 -418
-141 -771 -453 -965 -853 -48 -99 -114 -282 -125 -347 -3 -18 -8 -40 -10 -48
-5 -19 -13 -62 -22 -130 -10 -71 -10 -3976 0 -4055 40 -323 168 -618 374 -867
272 -328 664 -543 1089 -596 80 -10 3972 -9 4054 1 429 53 821 273 1106 622
150 182 283 467 328 702 9 43 19 94 23 113 4 19 8 924 10 2010 2 2089 2 2068
-43 2250 -48 194 -126 373 -232 535 -36 55 -71 105 -76 111 -6 6 -36 40 -66
75 -127 150 -320 298 -504 388 -141 69 -157 76 -276 110 -239 70 -62 65 -2266
68 -1095 2 -1992 1 -1995 -1z"/>
</g>
</svg>
